<?xml version="1.0" encoding="utf-8"?>
<!-- Generator: Adobe Illustrator 22.0.1, SVG Export Plug-In . SVG Version: 6.00 Build 0)  -->
<svg version="1.1" xmlns="http://www.w3.org/2000/svg" xmlns:xlink="http://www.w3.org/1999/xlink" x="0px" y="0px"
	 viewBox="0 0 438.5 119.8" style="enable-background:new 0 0 438.5 119.8;" xml:space="preserve">
<style type="text/css">
	.st0{fill:none;stroke:#A9A9A9;stroke-width:0.5;stroke-miterlimit:10;}
	.st1{font-family:'Futura-MediumItalic';}
	.st2{font-size:72px;}
	.st3{font-size:24px;}
</style>
<g id="Layer_2">
	<g>
		<g>
			<path class="st0" d="M416.6,18.1c1.7,0,3.4-0.7,4.6-1.9c1.2-1.2,1.9-2.9,1.9-4.6s-0.7-3.4-1.9-4.6c-1.2-1.2-2.9-1.9-4.6-1.9
				c-1.7,0-3.4,0.7-4.6,1.9s-1.9,2.9-1.9,4.6s0.7,3.4,1.9,4.6S414.9,18.1,416.6,18.1L416.6,18.1z M144.7,76.1c1.4,0,2.8-0.6,3.8-1.6
				c1-1,1.6-2.4,1.6-3.8c0-1.4-0.6-2.8-1.6-3.8c-1-1-2.4-1.6-3.8-1.6s-2.8,0.6-3.8,1.6c-1,1-1.6,2.4-1.6,3.8c0,1.4,0.6,2.8,1.6,3.8
				C141.9,75.6,143.2,76.1,144.7,76.1L144.7,76.1z M374,106.7c1.6,0,3.2-0.6,4.3-1.8c1.2-1.2,1.8-2.7,1.8-4.3s-0.6-3.2-1.8-4.3
				c-1.2-1.2-2.7-1.8-4.3-1.8c-1.6,0-3.2,0.6-4.3,1.8c-1.2,1.2-1.8,2.7-1.8,4.3s0.6,3.2,1.8,4.3C370.8,106,372.4,106.7,374,106.7
				L374,106.7z M175.7,48.9c1.6,0,3.1-0.6,4.2-1.7c1.1-1.1,1.7-2.6,1.7-4.2c0-1.6-0.6-3.1-1.7-4.2c-1.1-1.1-2.6-1.7-4.2-1.7
				c-1.6,0-3.1,0.6-4.2,1.7c-1.1,1.1-1.7,2.6-1.7,4.2c0,1.6,0.6,3.1,1.7,4.2C172.6,48.3,174.1,48.9,175.7,48.9L175.7,48.9z
				 M322,37.6c1.5,0,3-0.6,4-1.7c1.1-1.1,1.7-2.5,1.7-4c0-1.5-0.6-3-1.7-4c-1.1-1.1-2.5-1.7-4-1.7c-1.5,0-3,0.6-4,1.7
				c-1.1,1.1-1.7,2.5-1.7,4c0,1.5,0.6,3,1.7,4C319,37,320.5,37.6,322,37.6L322,37.6z M317.9,27c1.7,0,3.3-0.7,4.4-1.8
				c1.2-1.2,1.8-2.8,1.8-4.4c0-1.7-0.7-3.3-1.8-4.4c-1.2-1.2-2.8-1.8-4.4-1.8c-1.7,0-3.3,0.7-4.4,1.8c-1.2,1.2-1.8,2.8-1.8,4.4
				c0,1.7,0.7,3.3,1.8,4.4C314.7,26.3,316.3,27,317.9,27L317.9,27z M166.3,34c1.6,0,3.1-0.6,4.2-1.7c1.1-1.1,1.7-2.6,1.7-4.2
				s-0.6-3.1-1.7-4.2c-1.1-1.1-2.6-1.7-4.2-1.7s-3.1,0.6-4.2,1.7c-1.1,1.1-1.7,2.6-1.7,4.2s0.6,3.1,1.7,4.2
				C163.2,33.4,164.7,34,166.3,34L166.3,34z M119.1,34.7c1.7,0,3.4-0.7,4.6-1.9c1.2-1.2,1.9-2.9,1.9-4.6c0-1.7-0.7-3.4-1.9-4.6
				c-1.2-1.2-2.9-1.9-4.6-1.9c-1.7,0-3.4,0.7-4.6,1.9c-1.2,1.2-1.9,2.9-1.9,4.6c0,1.7,0.7,3.4,1.9,4.6
				C115.7,34,117.4,34.7,119.1,34.7L119.1,34.7z M96.9,51.2c1.4,0,2.8-0.6,3.8-1.6c1-1,1.6-2.4,1.6-3.8c0-1.4-0.6-2.8-1.6-3.8
				c-1-1-2.4-1.6-3.8-1.6c-1.4,0-2.8,0.6-3.8,1.6c-1,1-1.6,2.4-1.6,3.8c0,1.4,0.6,2.8,1.6,3.8C94.1,50.7,95.4,51.2,96.9,51.2
				L96.9,51.2z M403.9,96.5c1.5,0,2.9-0.6,3.9-1.6c1-1,1.6-2.4,1.6-3.9c0-1.5-0.6-2.9-1.6-3.9c-1-1-2.4-1.6-3.9-1.6
				c-1.5,0-2.9,0.6-3.9,1.6c-1,1-1.6,2.4-1.6,3.9c0,1.5,0.6,2.9,1.6,3.9C401.1,95.9,402.5,96.5,403.9,96.5L403.9,96.5z M243.7,84.2
				c1.6,0,3.1-0.6,4.2-1.7c1.1-1.1,1.7-2.6,1.7-4.2c0-1.6-0.6-3.1-1.7-4.2c-1.1-1.1-2.6-1.7-4.2-1.7c-1.6,0-3.1,0.6-4.2,1.7
				c-1.1,1.1-1.7,2.6-1.7,4.2c0,1.6,0.6,3.1,1.7,4.2C240.6,83.5,242.1,84.2,243.7,84.2L243.7,84.2z M412.2,104.4
				c1.5,0,3-0.6,4.1-1.7c1.1-1.1,1.7-2.6,1.7-4.1c0-1.5-0.6-3-1.7-4.1c-1.1-1.1-2.6-1.7-4.1-1.7c-1.5,0-3,0.6-4.1,1.7
				c-1.1,1.1-1.7,2.6-1.7,4.1c0,1.5,0.6,3,1.7,4.1C409.2,103.8,410.7,104.4,412.2,104.4L412.2,104.4z M138.6,45
				c1.6,0,3.2-0.7,4.4-1.8c1.2-1.2,1.8-2.7,1.8-4.4c0-1.6-0.7-3.2-1.8-4.4c-1.2-1.2-2.7-1.8-4.4-1.8c-1.6,0-3.2,0.7-4.4,1.8
				c-1.2,1.2-1.8,2.7-1.8,4.4c0,1.6,0.7,3.2,1.8,4.4C135.4,44.3,136.9,45,138.6,45L138.6,45z M342.5,101.2c1.6,0,3.1-0.6,4.2-1.8
				c1.1-1.1,1.8-2.7,1.8-4.2c0-1.6-0.6-3.1-1.8-4.2c-1.1-1.1-2.7-1.8-4.2-1.8c-1.6,0-3.1,0.6-4.2,1.8c-1.1,1.1-1.8,2.7-1.8,4.2
				c0,1.6,0.6,3.1,1.8,4.2C339.3,100.6,340.9,101.2,342.5,101.2L342.5,101.2z M44.5,55.6c1.7,0,3.4-0.7,4.6-1.9
				c1.2-1.2,1.9-2.9,1.9-4.6c0-1.7-0.7-3.4-1.9-4.6c-1.2-1.2-2.9-1.9-4.6-1.9c-1.7,0-3.4,0.7-4.6,1.9c-1.2,1.2-1.9,2.9-1.9,4.6
				c0,1.7,0.7,3.4,1.9,4.6C41.1,54.9,42.8,55.6,44.5,55.6L44.5,55.6z M259.2,37.3c1.6,0,3.1-0.6,4.2-1.7c1.1-1.1,1.7-2.6,1.7-4.2
				c0-1.6-0.6-3.1-1.7-4.2c-1.1-1.1-2.6-1.7-4.2-1.7c-1.6,0-3.1,0.6-4.2,1.7c-1.1,1.1-1.7,2.6-1.7,4.2c0,1.6,0.6,3.1,1.7,4.2
				C256.1,36.7,257.6,37.3,259.2,37.3L259.2,37.3z M351.4,82.9c1.7,0,3.4-0.7,4.7-1.9c1.2-1.2,1.9-2.9,1.9-4.7
				c0-1.7-0.7-3.4-1.9-4.7c-1.2-1.2-2.9-1.9-4.7-1.9c-1.7,0-3.4,0.7-4.7,1.9c-1.2,1.2-1.9,2.9-1.9,4.7c0,1.7,0.7,3.4,1.9,4.7
				C348,82.2,349.7,82.9,351.4,82.9L351.4,82.9z M379,50.9c1.5,0,3-0.6,4.1-1.7c1.1-1.1,1.7-2.6,1.7-4.1s-0.6-3-1.7-4.1
				c-1.1-1.1-2.6-1.7-4.1-1.7s-3,0.6-4.1,1.7c-1.1,1.1-1.7,2.6-1.7,4.1s0.6,3,1.7,4.1C376,50.3,377.5,50.9,379,50.9L379,50.9z
				 M259.3,15.6c1.6,0,3-0.6,4.1-1.7c1.1-1.1,1.7-2.6,1.7-4.1c0-1.6-0.6-3-1.7-4.1c-1.1-1.1-2.6-1.7-4.1-1.7c-1.6,0-3,0.6-4.1,1.7
				c-1.1,1.1-1.7,2.6-1.7,4.1c0,1.6,0.6,3,1.7,4.1C256.3,15,257.8,15.6,259.3,15.6L259.3,15.6z M166.2,82.4c1.6,0,3.2-0.6,4.3-1.8
				c1.1-1.1,1.8-2.7,1.8-4.3c0-1.6-0.6-3.2-1.8-4.3c-1.1-1.1-2.7-1.8-4.3-1.8s-3.2,0.6-4.3,1.8c-1.1,1.1-1.8,2.7-1.8,4.3
				c0,1.6,0.6,3.2,1.8,4.3C163.1,81.8,164.6,82.4,166.2,82.4L166.2,82.4z M144,111.5c1.7,0,3.2-0.7,4.4-1.8c1.2-1.2,1.8-2.8,1.8-4.4
				c0-1.7-0.7-3.2-1.8-4.4c-1.2-1.2-2.8-1.8-4.4-1.8c-1.7,0-3.2,0.7-4.4,1.8c-1.2,1.2-1.8,2.8-1.8,4.4c0,1.7,0.7,3.2,1.8,4.4
				C140.8,110.9,142.4,111.5,144,111.5L144,111.5z M44.3,32.8c1.5,0,2.9-0.6,4-1.6c1.1-1.1,1.6-2.5,1.6-4c0-1.5-0.6-2.9-1.6-4
				c-1.1-1.1-2.5-1.6-4-1.6c-1.5,0-2.9,0.6-4,1.6c-1.1,1.1-1.6,2.5-1.6,4c0,1.5,0.6,2.9,1.6,4C41.3,32.2,42.8,32.8,44.3,32.8
				L44.3,32.8z M107.1,57.3c1.6,0,3.2-0.6,4.3-1.8c1.1-1.1,1.8-2.7,1.8-4.3s-0.6-3.2-1.8-4.3c-1.1-1.1-2.7-1.8-4.3-1.8
				s-3.2,0.6-4.3,1.8s-1.8,2.7-1.8,4.3s0.6,3.2,1.8,4.3C104,56.7,105.5,57.3,107.1,57.3L107.1,57.3z M71.1,53.9
				c1.6,0,3.1-0.6,4.2-1.8c1.1-1.1,1.8-2.7,1.8-4.2c0-1.6-0.6-3.1-1.8-4.2c-1.1-1.1-2.7-1.8-4.2-1.8c-1.6,0-3.1,0.6-4.2,1.8
				c-1.1,1.1-1.8,2.7-1.8,4.2c0,1.6,0.6,3.1,1.8,4.2C68,53.3,69.5,53.9,71.1,53.9L71.1,53.9z M197.4,34.3c1.7,0,3.3-0.7,4.5-1.9
				c1.2-1.2,1.9-2.8,1.9-4.5c0-1.7-0.7-3.3-1.9-4.5c-1.2-1.2-2.8-1.9-4.5-1.9s-3.3,0.7-4.5,1.9c-1.2,1.2-1.9,2.8-1.9,4.5
				c0,1.7,0.7,3.3,1.9,4.5C194,33.7,195.7,34.3,197.4,34.3L197.4,34.3z M10.1,97.2c1.5,0,3-0.6,4.1-1.7c1.1-1.1,1.7-2.6,1.7-4.1
				c0-1.5-0.6-3-1.7-4.1s-2.6-1.7-4.1-1.7s-3,0.6-4.1,1.7c-1.1,1.1-1.7,2.6-1.7,4.1c0,1.5,0.6,3,1.7,4.1C7,96.6,8.5,97.2,10.1,97.2
				L10.1,97.2z M90.1,42.8c1.6,0,3.1-0.6,4.2-1.7c1.1-1.1,1.7-2.6,1.7-4.2c0-1.6-0.6-3.1-1.7-4.2c-1.1-1.1-2.6-1.7-4.2-1.7
				c-1.6,0-3.1,0.6-4.2,1.7c-1.1,1.1-1.7,2.6-1.7,4.2c0,1.6,0.6,3.1,1.7,4.2C87.1,42.1,88.6,42.8,90.1,42.8L90.1,42.8z M180.3,118.8
				c1.6,0,3.1-0.6,4.2-1.7c1.1-1.1,1.7-2.6,1.7-4.2c0-1.6-0.6-3.1-1.7-4.2c-1.1-1.1-2.6-1.7-4.2-1.7c-1.6,0-3.1,0.6-4.2,1.7
				c-1.1,1.1-1.7,2.6-1.7,4.2c0,1.6,0.6,3.1,1.7,4.2C177.2,118.2,178.7,118.8,180.3,118.8L180.3,118.8z M212.9,92.4
				c1.5,0,3-0.6,4.1-1.7c1.1-1.1,1.7-2.6,1.7-4.1s-0.6-3-1.7-4.1c-1.1-1.1-2.6-1.7-4.1-1.7c-1.5,0-3,0.6-4.1,1.7
				c-1.1,1.1-1.7,2.6-1.7,4.1s0.6,3,1.7,4.1C209.9,91.8,211.3,92.4,212.9,92.4L212.9,92.4z M344.3,45.6c1.7,0,3.3-0.7,4.5-1.9
				c1.2-1.2,1.9-2.8,1.9-4.5s-0.7-3.3-1.9-4.5c-1.2-1.2-2.8-1.9-4.5-1.9c-1.7,0-3.3,0.7-4.5,1.9c-1.2,1.2-1.9,2.8-1.9,4.5
				s0.7,3.3,1.9,4.5C341,44.9,342.6,45.6,344.3,45.6L344.3,45.6z M86.8,78.8c1.5,0,2.9-0.6,4-1.6c1.1-1.1,1.6-2.5,1.6-4
				c0-1.5-0.6-2.9-1.6-4c-1.1-1.1-2.5-1.6-4-1.6c-1.5,0-2.9,0.6-4,1.6c-1.1,1.1-1.6,2.5-1.6,4c0,1.5,0.6,2.9,1.6,4
				C83.9,78.2,85.3,78.8,86.8,78.8L86.8,78.8z M177.6,78.1c1.6,0,3.2-0.6,4.3-1.8c1.1-1.1,1.8-2.7,1.8-4.3c0-1.6-0.6-3.2-1.8-4.3
				c-1.1-1.1-2.7-1.8-4.3-1.8c-1.6,0-3.2,0.6-4.3,1.8c-1.1,1.1-1.8,2.7-1.8,4.3c0,1.6,0.6,3.2,1.8,4.3
				C174.5,77.5,176,78.1,177.6,78.1L177.6,78.1z M231.9,36.5c1.6,0,3.2-0.7,4.4-1.8c1.2-1.2,1.8-2.7,1.8-4.4c0-1.6-0.7-3.2-1.8-4.4
				c-1.2-1.2-2.7-1.8-4.4-1.8c-1.6,0-3.2,0.7-4.4,1.8c-1.2,1.2-1.8,2.7-1.8,4.4c0,1.6,0.7,3.2,1.8,4.4
				C228.7,35.8,230.2,36.5,231.9,36.5L231.9,36.5z M262.3,57.2c1.5,0,2.9-0.6,4-1.7c1.1-1.1,1.7-2.5,1.7-4c0-1.5-0.6-2.9-1.7-4
				c-1.1-1.1-2.5-1.7-4-1.7c-1.5,0-2.9,0.6-4,1.7c-1.1,1.1-1.7,2.5-1.7,4c0,1.5,0.6,2.9,1.7,4C259.4,56.6,260.8,57.2,262.3,57.2
				L262.3,57.2z M25.7,65.7c1.7,0,3.2-0.7,4.4-1.8c1.2-1.2,1.8-2.8,1.8-4.4s-0.7-3.2-1.8-4.4c-1.2-1.2-2.8-1.8-4.4-1.8
				c-1.7,0-3.2,0.7-4.4,1.8c-1.2,1.2-1.8,2.8-1.8,4.4s0.7,3.2,1.8,4.4C22.5,65,24,65.7,25.7,65.7L25.7,65.7z M156.6,56
				c1.6,0,3.1-0.6,4.2-1.7c1.1-1.1,1.7-2.6,1.7-4.2c0-1.6-0.6-3.1-1.7-4.2c-1.1-1.1-2.6-1.7-4.2-1.7c-1.6,0-3.1,0.6-4.2,1.7
				c-1.1,1.1-1.7,2.6-1.7,4.2c0,1.6,0.6,3.1,1.7,4.2C153.5,55.3,155,56,156.6,56L156.6,56z M21.3,76.5c1.5,0,3-0.6,4.1-1.7
				c1.1-1.1,1.7-2.6,1.7-4.1c0-1.5-0.6-3-1.7-4.1c-1.1-1.1-2.6-1.7-4.1-1.7c-1.5,0-3,0.6-4.1,1.7c-1.1,1.1-1.7,2.6-1.7,4.1
				c0,1.5,0.6,3,1.7,4.1C18.3,75.9,19.8,76.5,21.3,76.5L21.3,76.5z M356,49.2c1.6,0,3.1-0.6,4.2-1.7c1.1-1.1,1.7-2.6,1.7-4.2
				c0-1.6-0.6-3.1-1.7-4.2c-1.1-1.1-2.6-1.7-4.2-1.7c-1.6,0-3.1,0.6-4.2,1.7c-1.1,1.1-1.7,2.6-1.7,4.2c0,1.6,0.6,3.1,1.7,4.2
				C352.9,48.6,354.4,49.2,356,49.2L356,49.2z M268.5,117.6c1.7,0,3.4-0.7,4.6-1.9c1.2-1.2,1.9-2.9,1.9-4.6c0-1.7-0.7-3.4-1.9-4.6
				c-1.2-1.2-2.9-1.9-4.6-1.9c-1.7,0-3.4,0.7-4.6,1.9c-1.2,1.2-1.9,2.9-1.9,4.6c0,1.7,0.7,3.4,1.9,4.6
				C265.1,116.9,266.7,117.6,268.5,117.6L268.5,117.6z M232.7,57.1c1.5,0,2.9-0.6,3.9-1.6c1-1,1.6-2.4,1.6-3.9
				c0-1.5-0.6-2.9-1.6-3.9c-1-1-2.4-1.6-3.9-1.6c-1.5,0-2.9,0.6-3.9,1.6s-1.6,2.4-1.6,3.9c0,1.5,0.6,2.9,1.6,3.9
				C229.8,56.5,231.2,57.1,232.7,57.1L232.7,57.1z M125.8,45.3c1.7,0,3.3-0.7,4.4-1.8c1.2-1.2,1.8-2.8,1.8-4.4
				c0-1.7-0.7-3.3-1.8-4.4c-1.2-1.2-2.8-1.8-4.4-1.8s-3.3,0.7-4.4,1.8c-1.2,1.2-1.8,2.8-1.8,4.4c0,1.7,0.7,3.3,1.8,4.4
				C122.6,44.7,124.2,45.3,125.8,45.3L125.8,45.3z M265,82c1.6,0,3.2-0.6,4.4-1.8c1.2-1.2,1.8-2.7,1.8-4.4s-0.6-3.2-1.8-4.4
				c-1.2-1.2-2.7-1.8-4.4-1.8s-3.2,0.6-4.4,1.8c-1.2,1.2-1.8,2.7-1.8,4.4s0.6,3.2,1.8,4.4C261.8,81.4,263.4,82,265,82L265,82z
				 M373.4,28.5c1.6,0,3.2-0.7,4.4-1.8c1.2-1.2,1.8-2.7,1.8-4.4c0-1.6-0.7-3.2-1.8-4.4c-1.2-1.2-2.7-1.8-4.4-1.8
				c-1.6,0-3.2,0.7-4.4,1.8c-1.2,1.2-1.8,2.7-1.8,4.4c0,1.6,0.7,3.2,1.8,4.4C370.2,27.8,371.8,28.5,373.4,28.5L373.4,28.5z
				 M362.3,75.9c1.6,0,3.2-0.6,4.3-1.8c1.1-1.1,1.8-2.7,1.8-4.3c0-1.6-0.6-3.2-1.8-4.3c-1.1-1.1-2.7-1.8-4.3-1.8
				c-1.6,0-3.2,0.6-4.3,1.8c-1.1,1.1-1.8,2.7-1.8,4.3c0,1.6,0.6,3.2,1.8,4.3C359.1,75.2,360.7,75.9,362.3,75.9L362.3,75.9z
				 M19.4,54.9c1.6,0,3.2-0.6,4.3-1.8c1.2-1.2,1.8-2.7,1.8-4.3s-0.6-3.2-1.8-4.3c-1.2-1.2-2.7-1.8-4.3-1.8c-1.6,0-3.2,0.6-4.3,1.8
				c-1.2,1.2-1.8,2.7-1.8,4.3s0.6,3.2,1.8,4.3C16.2,54.3,17.8,54.9,19.4,54.9L19.4,54.9z M304.3,25.2c1.5,0,3-0.6,4.1-1.7
				c1.1-1.1,1.7-2.6,1.7-4.1s-0.6-3-1.7-4.1c-1.1-1.1-2.6-1.7-4.1-1.7c-1.5,0-3,0.6-4.1,1.7c-1.1,1.1-1.7,2.6-1.7,4.1s0.6,3,1.7,4.1
				C301.2,24.6,302.7,25.2,304.3,25.2L304.3,25.2z M102.2,70.4c1.6,0,3.2-0.6,4.3-1.8c1.1-1.1,1.8-2.7,1.8-4.3
				c0-1.6-0.6-3.2-1.8-4.3c-1.1-1.1-2.7-1.8-4.3-1.8s-3.2,0.6-4.3,1.8c-1.1,1.1-1.8,2.7-1.8,4.3c0,1.6,0.6,3.2,1.8,4.3
				C99.1,69.7,100.6,70.4,102.2,70.4L102.2,70.4z M174.6,25.7c1.4,0,2.8-0.6,3.8-1.6c1-1,1.6-2.4,1.6-3.8s-0.6-2.8-1.6-3.8
				c-1-1-2.4-1.6-3.8-1.6c-1.4,0-2.8,0.6-3.8,1.6c-1,1-1.6,2.4-1.6,3.8s0.6,2.8,1.6,3.8C171.8,25.2,173.2,25.7,174.6,25.7
				L174.6,25.7z M126.8,66.6c1.5,0,3-0.6,4.1-1.7c1.1-1.1,1.7-2.5,1.7-4.1c0-1.5-0.6-3-1.7-4.1c-1.1-1.1-2.5-1.7-4.1-1.7
				c-1.5,0-3,0.6-4.1,1.7c-1.1,1.1-1.7,2.5-1.7,4.1c0,1.5,0.6,3,1.7,4.1C123.8,66,125.3,66.6,126.8,66.6L126.8,66.6z M266,46.5
				c1.5,0,2.9-0.6,4-1.7c1.1-1.1,1.7-2.5,1.7-4s-0.6-2.9-1.7-4c-1.1-1.1-2.5-1.7-4-1.7c-1.5,0-2.9,0.6-4,1.7c-1.1,1.1-1.7,2.5-1.7,4
				s0.6,2.9,1.7,4C263,45.9,264.5,46.5,266,46.5L266,46.5z M235,102.9c1.6,0,3.2-0.6,4.3-1.8c1.1-1.1,1.8-2.7,1.8-4.3
				c0-1.6-0.6-3.2-1.8-4.3c-1.1-1.1-2.7-1.8-4.3-1.8c-1.6,0-3.2,0.6-4.3,1.8c-1.1,1.1-1.8,2.7-1.8,4.3c0,1.6,0.6,3.2,1.8,4.3
				C231.8,102.3,233.4,102.9,235,102.9L235,102.9z M244.5,57.7c1.7,0,3.3-0.7,4.4-1.8c1.2-1.2,1.8-2.8,1.8-4.4
				c0-1.7-0.7-3.3-1.8-4.4c-1.2-1.2-2.8-1.8-4.4-1.8c-1.7,0-3.3,0.7-4.4,1.8c-1.2,1.2-1.8,2.8-1.8,4.4c0,1.7,0.7,3.3,1.8,4.4
				C241.2,57.1,242.8,57.7,244.5,57.7L244.5,57.7z M201.4,73.8c1.5,0,3-0.6,4.1-1.7c1.1-1.1,1.7-2.6,1.7-4.1s-0.6-3-1.7-4.1
				c-1.1-1.1-2.6-1.7-4.1-1.7c-1.5,0-3,0.6-4.1,1.7c-1.1,1.1-1.7,2.6-1.7,4.1s0.6,3,1.7,4.1C198.4,73.2,199.9,73.8,201.4,73.8
				L201.4,73.8z M394,91.4c1.5,0,3-0.6,4.1-1.7c1.1-1.1,1.7-2.5,1.7-4.1s-0.6-3-1.7-4.1c-1.1-1.1-2.5-1.7-4.1-1.7
				c-1.5,0-3,0.6-4.1,1.7c-1.1,1.1-1.7,2.5-1.7,4.1s0.6,3,1.7,4.1C391.1,90.8,392.5,91.4,394,91.4L394,91.4z M206.3,115
				c1.4,0,2.8-0.6,3.8-1.6c1-1,1.6-2.3,1.6-3.8c0-1.4-0.6-2.8-1.6-3.8c-1-1-2.3-1.6-3.8-1.6c-1.4,0-2.8,0.6-3.8,1.6
				c-1,1-1.6,2.3-1.6,3.8c0,1.4,0.6,2.8,1.6,3.8C203.6,114.4,204.9,115,206.3,115L206.3,115z M64.8,73.4c1.5,0,3-0.6,4-1.7
				c1.1-1.1,1.7-2.5,1.7-4c0-1.5-0.6-3-1.7-4c-1.1-1.1-2.5-1.7-4-1.7c-1.5,0-3,0.6-4,1.7c-1.1,1.1-1.7,2.5-1.7,4c0,1.5,0.6,3,1.7,4
				C61.9,72.8,63.3,73.4,64.8,73.4L64.8,73.4z M33.9,96.6c1.4,0,2.8-0.6,3.8-1.6c1-1,1.6-2.4,1.6-3.8c0-1.4-0.6-2.8-1.6-3.8
				c-1-1-2.4-1.6-3.8-1.6c-1.4,0-2.8,0.6-3.8,1.6c-1,1-1.6,2.4-1.6,3.8c0,1.4,0.6,2.8,1.6,3.8C31.1,96,32.5,96.6,33.9,96.6
				L33.9,96.6z M62.6,62.2c1.6,0,3.1-0.6,4.2-1.7c1.1-1.1,1.7-2.6,1.7-4.2c0-1.6-0.6-3.1-1.7-4.2c-1.1-1.1-2.6-1.7-4.2-1.7
				c-1.6,0-3.1,0.6-4.2,1.7c-1.1,1.1-1.7,2.6-1.7,4.2c0,1.6,0.6,3.1,1.7,4.2C59.5,61.6,61,62.2,62.6,62.2L62.6,62.2z M50,109.7
				c1.4,0,2.8-0.6,3.8-1.6c1-1,1.6-2.4,1.6-3.8c0-1.4-0.6-2.8-1.6-3.8c-1-1-2.4-1.6-3.8-1.6c-1.4,0-2.8,0.6-3.8,1.6
				c-1,1-1.6,2.4-1.6,3.8c0,1.4,0.6,2.8,1.6,3.8C47.2,109.1,48.6,109.7,50,109.7L50,109.7z M330,29.4c1.6,0,3.1-0.6,4.3-1.8
				c1.1-1.1,1.8-2.7,1.8-4.3c0-1.6-0.6-3.1-1.8-4.3c-1.1-1.1-2.7-1.8-4.3-1.8c-1.6,0-3.1,0.6-4.3,1.8c-1.1,1.1-1.8,2.7-1.8,4.3
				c0,1.6,0.6,3.1,1.8,4.3C326.8,28.8,328.4,29.4,330,29.4L330,29.4z M426.7,75.6c1.7,0,3.4-0.7,4.6-1.9c1.2-1.2,1.9-2.9,1.9-4.6
				c0-1.7-0.7-3.4-1.9-4.6c-1.2-1.2-2.9-1.9-4.6-1.9c-1.7,0-3.4,0.7-4.6,1.9c-1.2,1.2-1.9,2.9-1.9,4.6c0,1.7,0.7,3.4,1.9,4.6
				C423.3,74.9,424.9,75.6,426.7,75.6L426.7,75.6z M198.7,107.5c1.4,0,2.8-0.6,3.8-1.6c1-1,1.6-2.4,1.6-3.8s-0.6-2.8-1.6-3.8
				c-1-1-2.4-1.6-3.8-1.6c-1.4,0-2.8,0.6-3.8,1.6c-1,1-1.6,2.4-1.6,3.8s0.6,2.8,1.6,3.8C195.9,107,197.3,107.5,198.7,107.5
				L198.7,107.5z M292.5,25.4c1.5,0,2.9-0.6,3.9-1.6c1-1,1.6-2.5,1.6-3.9s-0.6-2.9-1.6-3.9c-1-1-2.5-1.6-3.9-1.6s-2.9,0.6-3.9,1.6
				c-1,1-1.6,2.5-1.6,3.9s0.6,2.9,1.6,3.9C289.6,24.8,291,25.4,292.5,25.4L292.5,25.4z M131.9,56.1c1.6,0,3.2-0.7,4.4-1.8
				c1.2-1.2,1.8-2.7,1.8-4.4c0-1.6-0.7-3.2-1.8-4.4c-1.2-1.2-2.7-1.8-4.4-1.8c-1.6,0-3.2,0.7-4.4,1.8c-1.2,1.2-1.8,2.7-1.8,4.4
				c0,1.6,0.7,3.2,1.8,4.4C128.7,55.5,130.3,56.1,131.9,56.1L131.9,56.1z M179.6,101.4c1.6,0,3.1-0.6,4.3-1.8
				c1.1-1.1,1.8-2.7,1.8-4.3c0-1.6-0.6-3.1-1.8-4.3c-1.1-1.1-2.7-1.8-4.3-1.8c-1.6,0-3.1,0.6-4.3,1.8c-1.1,1.1-1.8,2.7-1.8,4.3
				c0,1.6,0.6,3.1,1.8,4.3C176.5,100.8,178,101.4,179.6,101.4L179.6,101.4z M13,43.3c1.6,0,3.2-0.6,4.3-1.8c1.1-1.1,1.8-2.7,1.8-4.3
				c0-1.6-0.6-3.2-1.8-4.3c-1.1-1.1-2.7-1.8-4.3-1.8c-1.6,0-3.2,0.6-4.3,1.8c-1.1,1.1-1.8,2.7-1.8,4.3c0,1.6,0.6,3.2,1.8,4.3
				C9.8,42.6,11.4,43.3,13,43.3L13,43.3z M369.2,16.9c1.6,0,3.2-0.7,4.4-1.8c1.2-1.2,1.8-2.7,1.8-4.4c0-1.6-0.7-3.2-1.8-4.4
				c-1.2-1.2-2.7-1.8-4.4-1.8c-1.6,0-3.2,0.7-4.4,1.8c-1.2,1.2-1.8,2.7-1.8,4.4c0,1.6,0.7,3.2,1.8,4.4
				C366,16.2,367.5,16.9,369.2,16.9L369.2,16.9z M233.9,16.9c1.8,0,3.4-0.7,4.7-1.9c1.2-1.2,1.9-2.9,1.9-4.7c0-1.8-0.7-3.4-1.9-4.7
				c-1.2-1.2-2.9-1.9-4.7-1.9c-1.8,0-3.4,0.7-4.7,1.9c-1.2,1.2-1.9,2.9-1.9,4.7c0,1.8,0.7,3.4,1.9,4.7
				C230.5,16.2,232.1,16.9,233.9,16.9L233.9,16.9z M47.3,11.8c1.5,0,3-0.6,4.1-1.7C52.5,9,53.1,7.6,53.1,6s-0.6-3-1.7-4.1
				c-1.1-1.1-2.6-1.7-4.1-1.7c-1.5,0-3,0.6-4.1,1.7C42.1,3,41.5,4.5,41.5,6s0.6,3,1.7,4.1C44.3,11.2,45.8,11.8,47.3,11.8L47.3,11.8z
				 M105.9,90.7c1.5,0,3-0.6,4.1-1.7c1.1-1.1,1.7-2.6,1.7-4.1c0-1.5-0.6-3-1.7-4.1c-1.1-1.1-2.6-1.7-4.1-1.7s-3,0.6-4.1,1.7
				c-1.1,1.1-1.7,2.6-1.7,4.1c0,1.5,0.6,3,1.7,4.1C102.9,90.1,104.4,90.7,105.9,90.7L105.9,90.7z M275.7,86.4c1.5,0,2.9-0.6,4-1.6
				c1.1-1.1,1.6-2.5,1.6-4c0-1.5-0.6-2.9-1.6-4c-1.1-1.1-2.5-1.6-4-1.6c-1.5,0-2.9,0.6-4,1.6c-1.1,1.1-1.6,2.5-1.6,4
				c0,1.5,0.6,2.9,1.6,4C272.8,85.8,274.2,86.4,275.7,86.4L275.7,86.4z M81.7,90.5c1.7,0,3.3-0.7,4.6-1.9c1.2-1.2,1.9-2.8,1.9-4.6
				c0-1.7-0.7-3.3-1.9-4.6c-1.2-1.2-2.8-1.9-4.6-1.9c-1.7,0-3.3,0.7-4.6,1.9c-1.2,1.2-1.9,2.8-1.9,4.6c0,1.7,0.7,3.3,1.9,4.6
				C78.3,89.8,80,90.5,81.7,90.5L81.7,90.5z M100.3,101.4c1.6,0,3.2-0.6,4.3-1.8c1.1-1.1,1.8-2.7,1.8-4.3c0-1.6-0.6-3.2-1.8-4.3
				c-1.1-1.1-2.7-1.8-4.3-1.8S97.1,89.9,96,91c-1.1,1.1-1.8,2.7-1.8,4.3c0,1.6,0.6,3.2,1.8,4.3C97.1,100.8,98.7,101.4,100.3,101.4
				L100.3,101.4z M191.3,98.8c1.5,0,3-0.6,4.1-1.7c1.1-1.1,1.7-2.6,1.7-4.1c0-1.5-0.6-3-1.7-4.1c-1.1-1.1-2.6-1.7-4.1-1.7
				c-1.5,0-3,0.6-4.1,1.7c-1.1,1.1-1.7,2.6-1.7,4.1c0,1.5,0.6,3,1.7,4.1C188.3,98.1,189.8,98.8,191.3,98.8L191.3,98.8z M64.6,85.3
				c1.6,0,3.1-0.6,4.2-1.7c1.1-1.1,1.7-2.6,1.7-4.2c0-1.6-0.6-3.1-1.7-4.2c-1.1-1.1-2.6-1.7-4.2-1.7c-1.6,0-3.1,0.6-4.2,1.7
				c-1.1,1.1-1.7,2.6-1.7,4.2c0,1.6,0.6,3.1,1.7,4.2C61.5,84.7,63,85.3,64.6,85.3L64.6,85.3z M94.2,111.3c1.5,0,3-0.6,4.1-1.7
				c1.1-1.1,1.7-2.6,1.7-4.1c0-1.5-0.6-3-1.7-4.1c-1.1-1.1-2.6-1.7-4.1-1.7s-3,0.6-4.1,1.7c-1.1,1.1-1.7,2.6-1.7,4.1
				c0,1.5,0.6,3,1.7,4.1C91.2,110.7,92.6,111.3,94.2,111.3L94.2,111.3z M28.4,87.1c1.7,0,3.4-0.7,4.6-1.9c1.2-1.2,1.9-2.9,1.9-4.6
				c0-1.7-0.7-3.4-1.9-4.6c-1.2-1.2-2.9-1.9-4.6-1.9c-1.7,0-3.4,0.7-4.6,1.9c-1.2,1.2-1.9,2.9-1.9,4.6c0,1.7,0.7,3.4,1.9,4.6
				C25,86.5,26.7,87.1,28.4,87.1L28.4,87.1z M325,49c1.6,0,3.1-0.6,4.2-1.7c1.1-1.1,1.7-2.6,1.7-4.2c0-1.6-0.6-3.1-1.7-4.2
				c-1.1-1.1-2.6-1.7-4.2-1.7c-1.6,0-3.1,0.6-4.2,1.7c-1.1,1.1-1.7,2.6-1.7,4.2c0,1.6,0.6,3.1,1.7,4.2C322,48.4,323.5,49,325,49
				L325,49z M83.6,32.9c1.5,0,3-0.6,4.1-1.7c1.1-1.1,1.7-2.6,1.7-4.1c0-1.5-0.6-3-1.7-4.1c-1.1-1.1-2.6-1.7-4.1-1.7
				c-1.5,0-3,0.6-4.1,1.7c-1.1,1.1-1.7,2.6-1.7,4.1c0,1.5,0.6,3,1.7,4.1C80.6,32.3,82,32.9,83.6,32.9L83.6,32.9z M353.5,106
				c1.5,0,2.9-0.6,4-1.7s1.7-2.5,1.7-4c0-1.5-0.6-2.9-1.7-4c-1.1-1.1-2.5-1.7-4-1.7c-1.5,0-2.9,0.6-4,1.7c-1.1,1.1-1.7,2.5-1.7,4
				c0,1.5,0.6,2.9,1.7,4C350.6,105.4,352,106,353.5,106L353.5,106z M285.7,16.4c1.6,0,3.1-0.6,4.3-1.8c1.1-1.1,1.8-2.7,1.8-4.3
				c0-1.6-0.6-3.1-1.8-4.3c-1.1-1.1-2.7-1.8-4.3-1.8c-1.6,0-3.1,0.6-4.3,1.8c-1.1,1.1-1.8,2.7-1.8,4.3c0,1.6,0.6,3.1,1.8,4.3
				C282.6,15.8,284.1,16.4,285.7,16.4L285.7,16.4z M372.7,70c1.5,0,2.9-0.6,3.9-1.6c1-1,1.6-2.5,1.6-3.9s-0.6-2.9-1.6-3.9
				c-1-1-2.5-1.6-3.9-1.6c-1.5,0-2.9,0.6-3.9,1.6c-1,1-1.6,2.5-1.6,3.9s0.6,2.9,1.6,3.9C369.8,69.4,371.2,70,372.7,70L372.7,70z
				 M429,37c1.7,0,3.4-0.7,4.6-1.9c1.2-1.2,1.9-2.9,1.9-4.6c0-1.7-0.7-3.4-1.9-4.6c-1.2-1.2-2.9-1.9-4.6-1.9s-3.4,0.7-4.6,1.9
				c-1.2,1.2-1.9,2.9-1.9,4.6c0,1.7,0.7,3.4,1.9,4.6C425.6,36.3,427.3,37,429,37L429,37z M310.8,113.8c1.6,0,3.2-0.7,4.4-1.8
				c1.2-1.2,1.8-2.7,1.8-4.4c0-1.6-0.7-3.2-1.8-4.4c-1.2-1.2-2.7-1.8-4.4-1.8c-1.6,0-3.2,0.7-4.4,1.8c-1.2,1.2-1.8,2.7-1.8,4.4
				c0,1.6,0.7,3.2,1.8,4.4C307.6,113.2,309.2,113.8,310.8,113.8L310.8,113.8z M31.2,117.7c1.5,0,3-0.6,4.1-1.7
				c1.1-1.1,1.7-2.6,1.7-4.1c0-1.5-0.6-3-1.7-4.1c-1.1-1.1-2.6-1.7-4.1-1.7c-1.5,0-3,0.6-4.1,1.7c-1.1,1.1-1.7,2.6-1.7,4.1
				c0,1.5,0.6,3,1.7,4.1C28.1,117,29.6,117.7,31.2,117.7L31.2,117.7z M297.1,15.3c1.4,0,2.8-0.6,3.8-1.6c1-1,1.6-2.4,1.6-3.8
				c0-1.4-0.6-2.8-1.6-3.8c-1-1-2.4-1.6-3.8-1.6c-1.4,0-2.8,0.6-3.8,1.6c-1,1-1.6,2.4-1.6,3.8c0,1.4,0.6,2.8,1.6,3.8
				C294.4,14.8,295.7,15.3,297.1,15.3L297.1,15.3z M384.9,30.6c1.5,0,2.9-0.6,3.9-1.6c1-1,1.6-2.5,1.6-3.9c0-1.5-0.6-2.9-1.6-3.9
				c-1-1-2.5-1.6-3.9-1.6c-1.5,0-2.9,0.6-3.9,1.6c-1,1-1.6,2.5-1.6,3.9c0,1.5,0.6,2.9,1.6,3.9C382,30.1,383.4,30.6,384.9,30.6
				L384.9,30.6z M98.2,81.9c1.6,0,3.2-0.6,4.3-1.8c1.1-1.1,1.8-2.7,1.8-4.3c0-1.6-0.6-3.2-1.8-4.3c-1.1-1.1-2.7-1.8-4.3-1.8
				c-1.6,0-3.2,0.6-4.3,1.8c-1.1,1.1-1.8,2.7-1.8,4.3c0,1.6,0.6,3.2,1.8,4.3C95,81.2,96.6,81.9,98.2,81.9L98.2,81.9z M202.7,97.5
				c1.5,0,2.9-0.6,4-1.7c1.1-1.1,1.7-2.5,1.7-4c0-1.5-0.6-2.9-1.7-4c-1.1-1.1-2.5-1.7-4-1.7c-1.5,0-2.9,0.6-4,1.7
				c-1.1,1.1-1.7,2.5-1.7,4c0,1.5,0.6,2.9,1.7,4C199.8,96.9,201.2,97.5,202.7,97.5L202.7,97.5z M405.5,62.2c1.8,0,3.4-0.7,4.7-1.9
				c1.2-1.2,1.9-2.9,1.9-4.7c0-1.8-0.7-3.4-1.9-4.7c-1.2-1.2-2.9-1.9-4.7-1.9c-1.8,0-3.4,0.7-4.7,1.9c-1.2,1.2-1.9,2.9-1.9,4.7
				c0,1.8,0.7,3.4,1.9,4.7C402.1,61.5,403.8,62.2,405.5,62.2L405.5,62.2z M230.9,67.8c1.4,0,2.8-0.6,3.9-1.6c1-1,1.6-2.4,1.6-3.9
				s-0.6-2.8-1.6-3.9c-1-1-2.4-1.6-3.9-1.6s-2.8,0.6-3.9,1.6c-1,1-1.6,2.4-1.6,3.9s0.6,2.8,1.6,3.9
				C228.1,67.2,229.5,67.8,230.9,67.8L230.9,67.8z M168.5,116.4c1.6,0,3.1-0.6,4.2-1.8c1.1-1.1,1.8-2.6,1.8-4.2s-0.6-3.1-1.8-4.2
				c-1.1-1.1-2.6-1.8-4.2-1.8c-1.6,0-3.1,0.6-4.2,1.8c-1.1,1.1-1.8,2.6-1.8,4.2s0.6,3.1,1.8,4.2
				C165.4,115.8,166.9,116.4,168.5,116.4L168.5,116.4z M157.3,112.1c1.6,0,3.1-0.6,4.3-1.8c1.1-1.1,1.8-2.7,1.8-4.3
				s-0.6-3.1-1.8-4.3c-1.1-1.1-2.7-1.8-4.3-1.8c-1.6,0-3.1,0.6-4.3,1.8c-1.1,1.1-1.8,2.7-1.8,4.3s0.6,3.1,1.8,4.3
				C154.2,111.5,155.7,112.1,157.3,112.1L157.3,112.1z M313.9,15.1c1.8,0,3.5-0.7,4.7-1.9c1.2-1.2,1.9-2.9,1.9-4.7
				c0-1.8-0.7-3.5-1.9-4.7c-1.2-1.2-2.9-1.9-4.7-1.9c-1.8,0-3.5,0.7-4.7,1.9c-1.2,1.2-1.9,2.9-1.9,4.7c0,1.8,0.7,3.5,1.9,4.7
				C310.4,14.4,312.1,15.1,313.9,15.1L313.9,15.1z M6.8,54.7c1.7,0,3.4-0.7,4.6-1.9s1.9-2.9,1.9-4.6c0-1.7-0.7-3.4-1.9-4.6
				c-1.2-1.2-2.9-1.9-4.6-1.9c-1.7,0-3.4,0.7-4.6,1.9c-1.2,1.2-1.9,2.9-1.9,4.6c0,1.7,0.7,3.4,1.9,4.6S5,54.7,6.8,54.7L6.8,54.7z
				 M31.7,54.8c1.6,0,3.2-0.7,4.4-1.8c1.2-1.2,1.8-2.7,1.8-4.4c0-1.6-0.7-3.2-1.8-4.4c-1.2-1.2-2.7-1.8-4.4-1.8
				c-1.6,0-3.2,0.7-4.4,1.8c-1.2,1.2-1.8,2.7-1.8,4.4c0,1.6,0.7,3.2,1.8,4.4C28.5,54.1,30.1,54.8,31.7,54.8L31.7,54.8z M418.1,30.2
				c1.6,0,3.2-0.6,4.3-1.8c1.1-1.1,1.8-2.7,1.8-4.3s-0.6-3.2-1.8-4.3c-1.1-1.1-2.7-1.8-4.3-1.8c-1.6,0-3.2,0.6-4.3,1.8
				c-1.1,1.1-1.8,2.7-1.8,4.3s0.6,3.2,1.8,4.3C414.9,29.5,416.5,30.2,418.1,30.2L418.1,30.2z M390.2,54.2c1.5,0,3-0.6,4-1.7
				c1.1-1.1,1.7-2.5,1.7-4c0-1.5-0.6-3-1.7-4c-1.1-1.1-2.5-1.7-4-1.7c-1.5,0-3,0.6-4,1.7c-1.1,1.1-1.7,2.5-1.7,4c0,1.5,0.6,3,1.7,4
				C387.3,53.6,388.7,54.2,390.2,54.2L390.2,54.2z M374.1,94.4c1.7,0,3.3-0.7,4.5-1.8c1.2-1.2,1.8-2.8,1.8-4.5
				c0-1.7-0.7-3.3-1.8-4.5c-1.2-1.2-2.8-1.8-4.5-1.8c-1.7,0-3.3,0.7-4.5,1.8c-1.2,1.2-1.8,2.8-1.8,4.5c0,1.7,0.7,3.3,1.8,4.5
				C370.9,93.7,372.5,94.4,374.1,94.4L374.1,94.4z M285.7,57.5c1.5,0,2.9-0.6,3.9-1.6c1-1,1.6-2.4,1.6-3.9c0-1.5-0.6-2.9-1.6-3.9
				c-1-1-2.4-1.6-3.9-1.6c-1.5,0-2.9,0.6-3.9,1.6c-1,1-1.6,2.4-1.6,3.9c0,1.5,0.6,2.9,1.6,3.9C282.9,56.9,284.3,57.5,285.7,57.5
				L285.7,57.5z M244.3,95.4c1.5,0,2.9-0.6,4-1.6c1.1-1.1,1.6-2.5,1.6-4c0-1.5-0.6-2.9-1.6-4c-1.1-1.1-2.5-1.6-4-1.6
				c-1.5,0-2.9,0.6-4,1.6c-1.1,1.1-1.6,2.5-1.6,4c0,1.5,0.6,2.9,1.6,4C241.4,94.8,242.8,95.4,244.3,95.4L244.3,95.4z M326,17.5
				c1.5,0,2.9-0.6,4-1.6c1-1,1.6-2.5,1.6-4S331,9,330,8s-2.5-1.6-4-1.6c-1.5,0-2.9,0.6-4,1.6c-1,1-1.6,2.5-1.6,4s0.6,2.9,1.6,4
				C323.1,17,324.5,17.5,326,17.5L326,17.5z M125.9,22.9c1.7,0,3.4-0.7,4.6-1.9c1.2-1.2,1.9-2.9,1.9-4.6s-0.7-3.4-1.9-4.6
				c-1.2-1.2-2.9-1.9-4.6-1.9c-1.7,0-3.4,0.7-4.6,1.9c-1.2,1.2-1.9,2.9-1.9,4.6s0.7,3.4,1.9,4.6C122.5,22.2,124.2,22.9,125.9,22.9
				L125.9,22.9z M341.8,89.2c1.5,0,2.9-0.6,3.9-1.6s1.6-2.4,1.6-3.9s-0.6-2.9-1.6-3.9s-2.4-1.6-3.9-1.6c-1.5,0-2.9,0.6-3.9,1.6
				c-1,1-1.6,2.4-1.6,3.9s0.6,2.9,1.6,3.9C339,88.7,340.4,89.2,341.8,89.2L341.8,89.2z M106.4,113.3c1.7,0,3.4-0.7,4.6-1.9
				c1.2-1.2,1.9-2.9,1.9-4.6c0-1.7-0.7-3.4-1.9-4.6c-1.2-1.2-2.9-1.9-4.6-1.9c-1.7,0-3.4,0.7-4.6,1.9c-1.2,1.2-1.9,2.9-1.9,4.6
				c0,1.7,0.7,3.4,1.9,4.6C103,112.6,104.7,113.3,106.4,113.3L106.4,113.3z M393.4,22.1c1.6,0,3.1-0.6,4.2-1.7s1.7-2.6,1.7-4.2
				s-0.6-3.1-1.7-4.2s-2.6-1.7-4.2-1.7c-1.6,0-3.1,0.6-4.2,1.7c-1.1,1.1-1.7,2.6-1.7,4.2s0.6,3.1,1.7,4.2
				C390.3,21.5,391.8,22.1,393.4,22.1L393.4,22.1z M186.1,28.6c1.6,0,3.2-0.6,4.3-1.8c1.1-1.1,1.8-2.7,1.8-4.3
				c0-1.6-0.6-3.2-1.8-4.3c-1.1-1.1-2.7-1.8-4.3-1.8s-3.2,0.6-4.3,1.8c-1.1,1.1-1.8,2.7-1.8,4.3c0,1.6,0.6,3.2,1.8,4.3
				C182.9,27.9,184.5,28.6,186.1,28.6L186.1,28.6z M343.6,112.4c1.5,0,2.9-0.6,4-1.6c1.1-1.1,1.6-2.5,1.6-4s-0.6-2.9-1.6-4
				c-1.1-1.1-2.5-1.6-4-1.6c-1.5,0-2.9,0.6-4,1.6c-1.1,1.1-1.6,2.5-1.6,4s0.6,2.9,1.6,4C340.7,111.9,342.1,112.4,343.6,112.4
				L343.6,112.4z M83.5,56.5c1.8,0,3.4-0.7,4.7-1.9c1.2-1.2,1.9-2.9,1.9-4.7c0-1.8-0.7-3.4-1.9-4.7c-1.2-1.2-2.9-1.9-4.7-1.9
				c-1.8,0-3.4,0.7-4.7,1.9c-1.2,1.2-1.9,2.9-1.9,4.7c0,1.8,0.7,3.4,1.9,4.7C80.1,55.8,81.8,56.5,83.5,56.5L83.5,56.5z M131.9,109.6
				c1.6,0,3.1-0.6,4.2-1.8c1.1-1.1,1.8-2.6,1.8-4.2s-0.6-3.1-1.8-4.2c-1.1-1.1-2.6-1.8-4.2-1.8s-3.1,0.6-4.2,1.8
				c-1.1,1.1-1.8,2.6-1.8,4.2s0.6,3.1,1.8,4.2C128.8,108.9,130.3,109.6,131.9,109.6L131.9,109.6z M268.4,104.5c1.5,0,3-0.6,4.1-1.7
				c1.1-1.1,1.7-2.6,1.7-4.1c0-1.5-0.6-3-1.7-4.1c-1.1-1.1-2.6-1.7-4.1-1.7c-1.5,0-3,0.6-4.1,1.7c-1.1,1.1-1.7,2.6-1.7,4.1
				c0,1.5,0.6,3,1.7,4.1C265.4,103.9,266.9,104.5,268.4,104.5L268.4,104.5z M101.7,21.5c1.7,0,3.4-0.7,4.6-1.9
				c1.2-1.2,1.9-2.9,1.9-4.6c0-1.7-0.7-3.4-1.9-4.6s-2.9-1.9-4.6-1.9c-1.7,0-3.4,0.7-4.6,1.9c-1.2,1.2-1.9,2.9-1.9,4.6
				c0,1.7,0.7,3.4,1.9,4.6C98.3,20.8,100,21.5,101.7,21.5L101.7,21.5z M9.1,76.3c1.7,0,3.3-0.7,4.5-1.9c1.2-1.2,1.9-2.8,1.9-4.5
				c0-1.7-0.7-3.3-1.9-4.5c-1.2-1.2-2.8-1.9-4.5-1.9s-3.3,0.7-4.5,1.9c-1.2,1.2-1.9,2.8-1.9,4.5c0,1.7,0.7,3.3,1.9,4.5
				C5.8,75.6,7.5,76.3,9.1,76.3L9.1,76.3z M396.6,34.7c1.7,0,3.4-0.7,4.6-1.9c1.2-1.2,1.9-2.9,1.9-4.6c0-1.7-0.7-3.4-1.9-4.6
				c-1.2-1.2-2.9-1.9-4.6-1.9c-1.7,0-3.4,0.7-4.6,1.9s-1.9,2.9-1.9,4.6c0,1.7,0.7,3.4,1.9,4.6C393.2,34,394.8,34.7,396.6,34.7
				L396.6,34.7z M195.8,63.6c1.6,0,3.1-0.6,4.3-1.8c1.1-1.1,1.8-2.7,1.8-4.3s-0.6-3.1-1.8-4.3c-1.1-1.1-2.7-1.8-4.3-1.8
				c-1.6,0-3.1,0.6-4.3,1.8c-1.1,1.1-1.8,2.7-1.8,4.3s0.6,3.1,1.8,4.3C192.7,63,194.2,63.6,195.8,63.6L195.8,63.6z M124.9,99.8
				c1.7,0,3.3-0.7,4.5-1.9s1.9-2.8,1.9-4.5c0-1.7-0.7-3.3-1.9-4.5s-2.8-1.9-4.5-1.9c-1.7,0-3.3,0.7-4.5,1.9
				c-1.2,1.2-1.9,2.8-1.9,4.5c0,1.7,0.7,3.3,1.9,4.5C121.5,99.1,123.2,99.8,124.9,99.8L124.9,99.8z M287.9,102.8
				c1.6,0,3.2-0.6,4.4-1.8c1.2-1.2,1.8-2.7,1.8-4.4c0-1.6-0.6-3.2-1.8-4.4c-1.2-1.2-2.7-1.8-4.4-1.8c-1.6,0-3.2,0.6-4.4,1.8
				c-1.2,1.2-1.8,2.7-1.8,4.4c0,1.6,0.6,3.2,1.8,4.4C284.7,102.1,286.2,102.8,287.9,102.8L287.9,102.8z M290.6,47.4
				c1.7,0,3.3-0.7,4.5-1.9c1.2-1.2,1.9-2.8,1.9-4.5c0-1.7-0.7-3.3-1.9-4.5c-1.2-1.2-2.8-1.9-4.5-1.9c-1.7,0-3.3,0.7-4.5,1.9
				c-1.2,1.2-1.9,2.8-1.9,4.5c0,1.7,0.7,3.3,1.9,4.5C287.3,46.7,288.9,47.4,290.6,47.4L290.6,47.4z M208.9,30.7
				c1.4,0,2.8-0.6,3.8-1.6c1-1,1.6-2.4,1.6-3.8c0-1.4-0.6-2.8-1.6-3.8c-1-1-2.4-1.6-3.8-1.6c-1.4,0-2.8,0.6-3.8,1.6
				s-1.6,2.4-1.6,3.8c0,1.4,0.6,2.8,1.6,3.8C206.1,30.2,207.5,30.7,208.9,30.7L208.9,30.7z M283.5,68.2c1.5,0,2.8-0.6,3.9-1.6
				c1-1,1.6-2.4,1.6-3.9c0-1.5-0.6-2.8-1.6-3.9s-2.4-1.6-3.9-1.6c-1.5,0-2.8,0.6-3.9,1.6c-1,1-1.6,2.4-1.6,3.9
				c0,1.5,0.6,2.8,1.6,3.9C280.6,67.7,282,68.2,283.5,68.2L283.5,68.2z M188.6,43.4c1.7,0,3.3-0.7,4.4-1.8c1.2-1.2,1.8-2.8,1.8-4.4
				c0-1.7-0.7-3.3-1.8-4.4c-1.2-1.2-2.8-1.8-4.4-1.8c-1.7,0-3.3,0.7-4.4,1.8c-1.2,1.2-1.8,2.8-1.8,4.4c0,1.7,0.7,3.3,1.8,4.4
				C185.3,42.8,186.9,43.4,188.6,43.4L188.6,43.4z M143.6,88.8c1.7,0,3.3-0.7,4.5-1.9s1.9-2.8,1.9-4.5c0-1.7-0.7-3.3-1.9-4.5
				c-1.2-1.2-2.8-1.9-4.5-1.9s-3.3,0.7-4.5,1.9c-1.2,1.2-1.9,2.8-1.9,4.5c0,1.7,0.7,3.3,1.9,4.5C140.3,88.1,141.9,88.8,143.6,88.8
				L143.6,88.8z M382.1,19.9c1.5,0,2.9-0.6,4-1.7c1.1-1.1,1.7-2.5,1.7-4s-0.6-2.9-1.7-4c-1.1-1.1-2.5-1.7-4-1.7s-2.9,0.6-4,1.7
				c-1.1,1.1-1.7,2.5-1.7,4s0.6,2.9,1.7,4C379.1,19.3,380.6,19.9,382.1,19.9L382.1,19.9z M219.2,37.3c1.7,0,3.3-0.7,4.5-1.9
				c1.2-1.2,1.9-2.8,1.9-4.5c0-1.7-0.7-3.3-1.9-4.5c-1.2-1.2-2.8-1.9-4.5-1.9c-1.7,0-3.3,0.7-4.5,1.9c-1.2,1.2-1.9,2.8-1.9,4.5
				c0,1.7,0.7,3.3,1.9,4.5C215.9,36.6,217.5,37.3,219.2,37.3L219.2,37.3z M39.1,109.1c1.5,0,2.9-0.6,4-1.6c1.1-1.1,1.6-2.5,1.6-4
				c0-1.5-0.6-2.9-1.6-4c-1.1-1.1-2.5-1.6-4-1.6c-1.5,0-2.9,0.6-4,1.6c-1.1,1.1-1.6,2.5-1.6,4c0,1.5,0.6,2.9,1.6,4
				C36.1,108.6,37.6,109.1,39.1,109.1L39.1,109.1z M224,111.3c1.7,0,3.3-0.7,4.5-1.9c1.2-1.2,1.9-2.8,1.9-4.5c0-1.7-0.7-3.3-1.9-4.5
				c-1.2-1.2-2.8-1.9-4.5-1.9c-1.7,0-3.3,0.7-4.5,1.9c-1.2,1.2-1.9,2.8-1.9,4.5c0,1.7,0.7,3.3,1.9,4.5
				C220.7,110.6,222.3,111.3,224,111.3L224,111.3z M221.3,61.8c1.7,0,3.4-0.7,4.6-1.9c1.2-1.2,1.9-2.9,1.9-4.6
				c0-1.7-0.7-3.4-1.9-4.6c-1.2-1.2-2.9-1.9-4.6-1.9c-1.7,0-3.4,0.7-4.6,1.9c-1.2,1.2-1.9,2.9-1.9,4.6c0,1.7,0.7,3.4,1.9,4.6
				C217.9,61.1,219.6,61.8,221.3,61.8L221.3,61.8z M303.4,47.7c1.7,0,3.3-0.7,4.5-1.9c1.2-1.2,1.9-2.8,1.9-4.5s-0.7-3.3-1.9-4.5
				c-1.2-1.2-2.8-1.9-4.5-1.9c-1.7,0-3.3,0.7-4.5,1.9c-1.2,1.2-1.9,2.8-1.9,4.5s0.7,3.3,1.9,4.5C300.1,47,301.7,47.7,303.4,47.7
				L303.4,47.7z M114.5,68c1.7,0,3.4-0.7,4.6-1.9c1.2-1.2,1.9-2.9,1.9-4.6s-0.7-3.4-1.9-4.6c-1.2-1.2-2.9-1.9-4.6-1.9
				c-1.7,0-3.4,0.7-4.6,1.9c-1.2,1.2-1.9,2.9-1.9,4.6s0.7,3.4,1.9,4.6C111.1,67.3,112.8,68,114.5,68L114.5,68z M32.5,74.5
				c1.5,0,2.9-0.6,3.9-1.6c1-1,1.6-2.4,1.6-3.9c0-1.5-0.6-2.9-1.6-3.9c-1-1-2.4-1.6-3.9-1.6c-1.5,0-2.9,0.6-3.9,1.6
				c-1,1-1.6,2.4-1.6,3.9c0,1.5,0.6,2.9,1.6,3.9C29.6,73.9,31,74.5,32.5,74.5L32.5,74.5z M278,25.7c1.6,0,3.1-0.6,4.2-1.8
				c1.1-1.1,1.8-2.7,1.8-4.2c0-1.6-0.6-3.1-1.8-4.2c-1.1-1.1-2.7-1.8-4.2-1.8c-1.6,0-3.1,0.6-4.2,1.8c-1.1,1.1-1.8,2.7-1.8,4.2
				c0,1.6,0.6,3.1,1.8,4.2C274.9,25,276.5,25.7,278,25.7L278,25.7z M353.2,36.5c1.6,0,3.1-0.6,4.2-1.8c1.1-1.1,1.8-2.7,1.8-4.2
				c0-1.6-0.6-3.1-1.8-4.2c-1.1-1.1-2.7-1.8-4.2-1.8c-1.6,0-3.1,0.6-4.2,1.8c-1.1,1.1-1.8,2.7-1.8,4.2c0,1.6,0.6,3.1,1.8,4.2
				C350.1,35.9,351.6,36.5,353.2,36.5L353.2,36.5z M39.6,22.5c1.8,0,3.5-0.7,4.7-2c1.3-1.3,2-2.9,2-4.7s-0.7-3.5-2-4.7
				c-1.3-1.3-2.9-2-4.7-2c-1.8,0-3.5,0.7-4.7,2c-1.3,1.3-2,2.9-2,4.7s0.7,3.5,2,4.7C36.1,21.8,37.8,22.5,39.6,22.5L39.6,22.5z
				 M337.9,65.5c1.6,0,3.1-0.6,4.2-1.7c1.1-1.1,1.7-2.6,1.7-4.2s-0.6-3.1-1.7-4.2c-1.1-1.1-2.6-1.7-4.2-1.7c-1.6,0-3.1,0.6-4.2,1.7
				c-1.1,1.1-1.7,2.6-1.7,4.2s0.6,3.1,1.7,4.2C334.8,64.9,336.3,65.5,337.9,65.5L337.9,65.5z M213.9,21.3c1.5,0,2.9-0.6,3.9-1.6
				c1-1,1.6-2.4,1.6-3.9s-0.6-2.9-1.6-3.9c-1-1-2.4-1.6-3.9-1.6s-2.9,0.6-3.9,1.6c-1,1-1.6,2.4-1.6,3.9s0.6,2.9,1.6,3.9
				C211,20.7,212.5,21.3,213.9,21.3L213.9,21.3z M275,75.2c1.5,0,2.9-0.6,3.9-1.6c1-1,1.6-2.4,1.6-3.9c0-1.5-0.6-2.9-1.6-3.9
				c-1-1-2.4-1.6-3.9-1.6s-2.9,0.6-3.9,1.6c-1,1-1.6,2.4-1.6,3.9c0,1.5,0.6,2.9,1.6,3.9C272.2,74.6,273.6,75.2,275,75.2L275,75.2z
				 M223.4,86c1.5,0,2.9-0.6,3.9-1.6c1-1,1.6-2.5,1.6-3.9c0-1.5-0.6-2.9-1.6-3.9c-1-1-2.5-1.6-3.9-1.6c-1.5,0-2.9,0.6-3.9,1.6
				c-1,1-1.6,2.5-1.6,3.9c0,1.5,0.6,2.9,1.6,3.9C220.5,85.4,221.9,86,223.4,86L223.4,86z M133.5,76.2c1.5,0,3-0.6,4.1-1.7
				c1.1-1.1,1.7-2.6,1.7-4.1s-0.6-3-1.7-4.1c-1.1-1.1-2.6-1.7-4.1-1.7c-1.5,0-3,0.6-4.1,1.7c-1.1,1.1-1.7,2.6-1.7,4.1s0.6,3,1.7,4.1
				S132,76.2,133.5,76.2L133.5,76.2z M308.1,87.4c1.6,0,3.2-0.6,4.3-1.8c1.2-1.2,1.8-2.7,1.8-4.3c0-1.6-0.6-3.2-1.8-4.3
				c-1.2-1.2-2.7-1.8-4.3-1.8c-1.6,0-3.2,0.6-4.3,1.8c-1.2,1.2-1.8,2.7-1.8,4.3c0,1.6,0.6,3.2,1.8,4.3
				C304.9,86.8,306.5,87.4,308.1,87.4L308.1,87.4z M246.9,15.8c1.7,0,3.3-0.7,4.5-1.9c1.2-1.2,1.9-2.8,1.9-4.5
				c0-1.7-0.7-3.3-1.9-4.5c-1.2-1.2-2.8-1.9-4.5-1.9c-1.7,0-3.3,0.7-4.5,1.9c-1.2,1.2-1.9,2.8-1.9,4.5c0,1.7,0.7,3.3,1.9,4.5
				C243.6,15.1,245.2,15.8,246.9,15.8L246.9,15.8z M423.8,86.8c1.5,0,3-0.6,4.1-1.7c1.1-1.1,1.7-2.6,1.7-4.1c0-1.5-0.6-3-1.7-4.1
				c-1.1-1.1-2.6-1.7-4.1-1.7c-1.5,0-3,0.6-4.1,1.7c-1.1,1.1-1.7,2.6-1.7,4.1c0,1.5,0.6,3,1.7,4.1C420.8,86.2,422.3,86.8,423.8,86.8
				L423.8,86.8z M428.1,12.1c1.4,0,2.8-0.6,3.8-1.6c1-1,1.6-2.4,1.6-3.8c0-1.4-0.6-2.8-1.6-3.8c-1-1-2.4-1.6-3.8-1.6
				s-2.8,0.6-3.8,1.6s-1.6,2.4-1.6,3.8c0,1.4,0.6,2.8,1.6,3.8C425.3,11.5,426.7,12.1,428.1,12.1L428.1,12.1z M171.9,92.2
				c1.5,0,2.9-0.6,4-1.6c1-1,1.6-2.5,1.6-4c0-1.5-0.6-2.9-1.6-4c-1-1-2.5-1.6-4-1.6c-1.5,0-2.9,0.6-4,1.6c-1,1-1.6,2.5-1.6,4
				c0,1.5,0.6,2.9,1.6,4C169,91.6,170.4,92.2,171.9,92.2L171.9,92.2z M107.2,31.4c1.5,0,2.9-0.6,4-1.6c1.1-1.1,1.6-2.5,1.6-4
				c0-1.5-0.6-2.9-1.6-4c-1.1-1.1-2.5-1.6-4-1.6c-1.5,0-2.9,0.6-4,1.6c-1.1,1.1-1.6,2.5-1.6,4c0,1.5,0.6,2.9,1.6,4
				C104.3,30.8,105.7,31.4,107.2,31.4L107.2,31.4z M416.9,67.2c1.6,0,3.2-0.6,4.3-1.8c1.1-1.1,1.8-2.7,1.8-4.3
				c0-1.6-0.6-3.2-1.8-4.3c-1.1-1.1-2.7-1.8-4.3-1.8c-1.6,0-3.2,0.6-4.3,1.8c-1.1,1.1-1.8,2.7-1.8,4.3c0,1.6,0.6,3.2,1.8,4.3
				C413.7,66.6,415.3,67.2,416.9,67.2L416.9,67.2z M12.2,118.1c1.7,0,3.4-0.7,4.6-1.9c1.2-1.2,1.9-2.9,1.9-4.6s-0.7-3.4-1.9-4.6
				c-1.2-1.2-2.9-1.9-4.6-1.9c-1.7,0-3.4,0.7-4.6,1.9c-1.2,1.2-1.9,2.9-1.9,4.6s0.7,3.4,1.9,4.6C8.8,117.4,10.5,118.1,12.2,118.1
				L12.2,118.1z M370.3,59.2c1.5,0,2.9-0.6,3.9-1.6c1-1,1.6-2.5,1.6-3.9s-0.6-2.9-1.6-3.9c-1-1-2.5-1.6-3.9-1.6
				c-1.5,0-2.9,0.6-3.9,1.6c-1,1-1.6,2.5-1.6,3.9s0.6,2.9,1.6,3.9C367.4,58.6,368.8,59.2,370.3,59.2L370.3,59.2z M409.2,49.5
				c1.7,0,3.3-0.7,4.5-1.9c1.2-1.2,1.9-2.8,1.9-4.5c0-1.7-0.7-3.3-1.9-4.5c-1.2-1.2-2.8-1.9-4.5-1.9c-1.7,0-3.3,0.7-4.5,1.9
				c-1.2,1.2-1.9,2.8-1.9,4.5c0,1.7,0.7,3.3,1.9,4.5C406,48.9,407.6,49.5,409.2,49.5L409.2,49.5z M64.8,23.1c1.5,0,3-0.6,4.1-1.7
				c1.1-1.1,1.7-2.5,1.7-4.1c0-1.5-0.6-3-1.7-4.1c-1.1-1.1-2.5-1.7-4.1-1.7c-1.5,0-3,0.6-4.1,1.7c-1.1,1.1-1.7,2.5-1.7,4.1
				c0,1.5,0.6,3,1.7,4.1C61.8,22.5,63.2,23.1,64.8,23.1L64.8,23.1z M21.5,95.8c1.4,0,2.8-0.6,3.9-1.6c1-1,1.6-2.4,1.6-3.9
				c0-1.4-0.6-2.8-1.6-3.9c-1-1-2.4-1.6-3.9-1.6c-1.4,0-2.8,0.6-3.9,1.6c-1,1-1.6,2.4-1.6,3.9c0,1.4,0.6,2.8,1.6,3.9
				C18.7,95.3,20.1,95.8,21.5,95.8L21.5,95.8z M173.1,66.8c1.5,0,3-0.6,4.1-1.7c1.1-1.1,1.7-2.6,1.7-4.1s-0.6-3-1.7-4.1
				c-1.1-1.1-2.6-1.7-4.1-1.7c-1.5,0-3,0.6-4.1,1.7c-1.1,1.1-1.7,2.6-1.7,4.1s0.6,3,1.7,4.1C170.1,66.2,171.6,66.8,173.1,66.8
				L173.1,66.8z M78.4,44.3c1.6,0,3.1-0.6,4.2-1.7c1.1-1.1,1.7-2.6,1.7-4.2c0-1.6-0.6-3.1-1.7-4.2c-1.1-1.1-2.6-1.7-4.2-1.7
				c-1.6,0-3.1,0.6-4.2,1.7c-1.1,1.1-1.7,2.6-1.7,4.2c0,1.6,0.6,3.1,1.7,4.2C75.3,43.7,76.8,44.3,78.4,44.3L78.4,44.3z M348.4,70
				c1.5,0,2.9-0.6,4-1.6c1.1-1.1,1.6-2.5,1.6-4c0-1.5-0.6-2.9-1.6-4c-1.1-1.1-2.5-1.6-4-1.6c-1.5,0-2.9,0.6-4,1.6
				c-1.1,1.1-1.6,2.5-1.6,4c0,1.5,0.6,2.9,1.6,4C345.5,69.4,347,70,348.4,70L348.4,70z M43.6,74.3c1.5,0,2.9-0.6,3.9-1.6
				c1-1,1.6-2.5,1.6-3.9c0-1.5-0.6-2.9-1.6-3.9c-1-1-2.5-1.6-3.9-1.6c-1.5,0-2.9,0.6-3.9,1.6c-1,1-1.6,2.5-1.6,3.9
				c0,1.5,0.6,2.9,1.6,3.9C40.7,73.7,42.1,74.3,43.6,74.3L43.6,74.3z M356.6,14.2c1.7,0,3.4-0.7,4.6-1.9c1.2-1.2,1.9-2.9,1.9-4.6
				c0-1.7-0.7-3.4-1.9-4.6C360,1.7,358.3,1,356.6,1c-1.7,0-3.4,0.7-4.6,1.9c-1.2,1.2-1.9,2.9-1.9,4.6c0,1.7,0.7,3.4,1.9,4.6
				C353.1,13.5,354.8,14.2,356.6,14.2L356.6,14.2z M363.4,111.6c1.5,0,3-0.6,4-1.7c1.1-1.1,1.7-2.5,1.7-4c0-1.5-0.6-3-1.7-4
				c-1.1-1.1-2.5-1.7-4-1.7c-1.5,0-3,0.6-4,1.7c-1.1,1.1-1.7,2.5-1.7,4c0,1.5,0.6,3,1.7,4C360.5,111,361.9,111.6,363.4,111.6
				L363.4,111.6z M384.2,113.2c1.6,0,3.1-0.6,4.2-1.8c1.1-1.1,1.8-2.6,1.8-4.2c0-1.6-0.6-3.1-1.8-4.2c-1.1-1.1-2.6-1.8-4.2-1.8
				s-3.1,0.6-4.2,1.8c-1.1,1.1-1.8,2.6-1.8,4.2c0,1.6,0.6,3.1,1.8,4.2C381.1,112.6,382.6,113.2,384.2,113.2L384.2,113.2z M45.6,99.8
				c1.7,0,3.4-0.7,4.6-1.9c1.2-1.2,1.9-2.9,1.9-4.6s-0.7-3.4-1.9-4.6c-1.2-1.2-2.9-1.9-4.6-1.9c-1.7,0-3.4,0.7-4.6,1.9
				c-1.2,1.2-1.9,2.9-1.9,4.6s0.7,3.4,1.9,4.6C42.2,99.1,43.8,99.8,45.6,99.8L45.6,99.8z M348.8,22.6c1.5,0,2.9-0.6,3.9-1.6
				c1-1,1.6-2.5,1.6-3.9s-0.6-2.9-1.6-3.9c-1-1-2.5-1.6-3.9-1.6s-2.9,0.6-3.9,1.6c-1,1-1.6,2.5-1.6,3.9s0.6,2.9,1.6,3.9
				C345.9,22,347.3,22.6,348.8,22.6L348.8,22.6z M286.5,79.6c1.6,0,3.1-0.6,4.2-1.7c1.1-1.1,1.7-2.6,1.7-4.2c0-1.6-0.6-3.1-1.7-4.2
				c-1.1-1.1-2.6-1.7-4.2-1.7s-3.1,0.6-4.2,1.7c-1.1,1.1-1.7,2.6-1.7,4.2c0,1.6,0.6,3.1,1.7,4.2C283.4,79,284.9,79.6,286.5,79.6
				L286.5,79.6z M58.1,34c1.7,0,3.3-0.7,4.5-1.9c1.2-1.2,1.9-2.8,1.9-4.5s-0.7-3.3-1.9-4.5c-1.2-1.2-2.8-1.9-4.5-1.9
				c-1.7,0-3.3,0.7-4.5,1.9c-1.2,1.2-1.9,2.8-1.9,4.5s0.7,3.3,1.9,4.5C54.7,33.3,56.4,34,58.1,34L58.1,34z M24.8,22.4
				c1.6,0,3.1-0.6,4.2-1.8c1.1-1.1,1.8-2.7,1.8-4.2c0-1.6-0.6-3.1-1.8-4.2c-1.1-1.1-2.7-1.8-4.2-1.8s-3.1,0.6-4.2,1.8
				c-1.1,1.1-1.8,2.7-1.8,4.2c0,1.6,0.6,3.1,1.8,4.2C21.7,21.7,23.2,22.4,24.8,22.4L24.8,22.4z M383.9,86.2c1.5,0,2.9-0.6,4-1.6
				c1.1-1.1,1.6-2.5,1.6-4c0-1.5-0.6-2.9-1.6-4c-1.1-1.1-2.5-1.6-4-1.6c-1.5,0-2.9,0.6-4,1.6c-1.1,1.1-1.6,2.5-1.6,4
				c0,1.5,0.6,2.9,1.6,4C380.9,85.6,382.4,86.2,383.9,86.2L383.9,86.2z M77.2,22.9c1.7,0,3.3-0.7,4.5-1.9c1.2-1.2,1.9-2.8,1.9-4.5
				s-0.7-3.3-1.9-4.5c-1.2-1.2-2.8-1.9-4.5-1.9c-1.7,0-3.3,0.7-4.5,1.9c-1.2,1.2-1.9,2.8-1.9,4.5s0.7,3.3,1.9,4.5
				C73.9,22.2,75.5,22.9,77.2,22.9L77.2,22.9z M364.6,37.1c1.4,0,2.8-0.6,3.9-1.6c1-1,1.6-2.4,1.6-3.9s-0.6-2.8-1.6-3.9
				c-1-1-2.4-1.6-3.9-1.6c-1.4,0-2.8,0.6-3.9,1.6c-1,1-1.6,2.4-1.6,3.9s0.6,2.8,1.6,3.9C361.8,36.5,363.2,37.1,364.6,37.1
				L364.6,37.1z M363.8,100.2c1.5,0,3-0.6,4.1-1.7c1.1-1.1,1.7-2.6,1.7-4.1s-0.6-3-1.7-4.1c-1.1-1.1-2.6-1.7-4.1-1.7
				c-1.5,0-3,0.6-4.1,1.7c-1.1,1.1-1.7,2.6-1.7,4.1s0.6,3,1.7,4.1C360.7,99.6,362.2,100.2,363.8,100.2L363.8,100.2z M64,44.2
				c1.6,0,3.1-0.6,4.2-1.7c1.1-1.1,1.7-2.6,1.7-4.2c0-1.6-0.6-3.1-1.7-4.2c-1.1-1.1-2.6-1.7-4.2-1.7c-1.6,0-3.1,0.6-4.2,1.7
				c-1.1,1.1-1.7,2.6-1.7,4.2c0,1.6,0.6,3.1,1.7,4.2C61,43.6,62.5,44.2,64,44.2L64,44.2z M253.8,64.6c1.5,0,2.9-0.6,4-1.7
				c1.1-1.1,1.7-2.5,1.7-4s-0.6-2.9-1.7-4c-1.1-1.1-2.5-1.7-4-1.7c-1.5,0-2.9,0.6-4,1.7c-1.1,1.1-1.7,2.5-1.7,4s0.6,2.9,1.7,4
				C250.8,64,252.3,64.6,253.8,64.6L253.8,64.6z M320,105.4c1.7,0,3.3-0.7,4.5-1.9c1.2-1.2,1.9-2.8,1.9-4.5c0-1.7-0.7-3.3-1.9-4.5
				c-1.2-1.2-2.8-1.9-4.5-1.9c-1.7,0-3.3,0.7-4.5,1.9c-1.2,1.2-1.9,2.8-1.9,4.5c0,1.7,0.7,3.3,1.9,4.5
				C316.7,104.7,318.3,105.4,320,105.4L320,105.4z M221.9,13.5c1.5,0,2.9-0.6,4-1.6c1.1-1.1,1.6-2.5,1.6-4c0-1.5-0.6-2.9-1.6-4
				c-1.1-1.1-2.5-1.6-4-1.6s-2.9,0.6-4,1.6c-1.1,1.1-1.6,2.5-1.6,4c0,1.5,0.6,2.9,1.6,4C219,13,220.4,13.5,221.9,13.5L221.9,13.5z
				 M19.4,33c1.6,0,3.1-0.6,4.2-1.7c1.1-1.1,1.7-2.6,1.7-4.2s-0.6-3.1-1.7-4.2c-1.1-1.1-2.6-1.7-4.2-1.7c-1.6,0-3.1,0.6-4.2,1.7
				c-1.1,1.1-1.7,2.6-1.7,4.2s0.6,3.1,1.7,4.2C16.3,32.3,17.8,33,19.4,33L19.4,33z M113.3,45.9c1.7,0,3.3-0.7,4.4-1.8
				s1.8-2.8,1.8-4.4c0-1.7-0.7-3.3-1.8-4.4c-1.2-1.2-2.8-1.8-4.4-1.8c-1.7,0-3.3,0.7-4.4,1.8c-1.2,1.2-1.8,2.8-1.8,4.4
				c0,1.7,0.7,3.3,1.8,4.4C110.1,45.2,111.7,45.9,113.3,45.9L113.3,45.9z M432.4,106.8c1.5,0,3-0.6,4.1-1.7c1.1-1.1,1.7-2.6,1.7-4.1
				c0-1.5-0.6-3-1.7-4.1c-1.1-1.1-2.6-1.7-4.1-1.7s-3,0.6-4.1,1.7c-1.1,1.1-1.7,2.6-1.7,4.1c0,1.5,0.6,3,1.7,4.1
				C429.3,106.2,430.8,106.8,432.4,106.8L432.4,106.8z M397,107.1c1.7,0,3.3-0.7,4.5-1.9c1.2-1.2,1.9-2.8,1.9-4.5
				c0-1.7-0.7-3.3-1.9-4.5c-1.2-1.2-2.8-1.9-4.5-1.9c-1.7,0-3.3,0.7-4.5,1.9c-1.2,1.2-1.9,2.8-1.9,4.5c0,1.7,0.7,3.3,1.9,4.5
				C393.6,106.4,395.3,107.1,397,107.1L397,107.1z M187.7,109.6c1.5,0,3-0.6,4-1.7s1.7-2.5,1.7-4c0-1.5-0.6-3-1.7-4
				c-1.1-1.1-2.5-1.7-4-1.7c-1.5,0-3,0.6-4,1.7c-1.1,1.1-1.7,2.5-1.7,4c0,1.5,0.6,3,1.7,4C184.7,109,186.2,109.6,187.7,109.6
				L187.7,109.6z M316.8,67.3c1.6,0,3.2-0.6,4.3-1.8s1.8-2.7,1.8-4.3c0-1.6-0.6-3.2-1.8-4.3s-2.7-1.8-4.3-1.8
				c-1.6,0-3.2,0.6-4.3,1.8s-1.8,2.7-1.8,4.3c0,1.6,0.6,3.2,1.8,4.3S315.2,67.3,316.8,67.3L316.8,67.3z M236.1,116
				c1.7,0,3.4-0.7,4.6-1.9c1.2-1.2,1.9-2.9,1.9-4.6c0-1.7-0.7-3.4-1.9-4.6c-1.2-1.2-2.9-1.9-4.6-1.9c-1.7,0-3.4,0.7-4.6,1.9
				s-1.9,2.9-1.9,4.6c0,1.7,0.7,3.4,1.9,4.6S234.4,116,236.1,116L236.1,116z M352.5,94.7c1.6,0,3.1-0.6,4.2-1.7
				c1.1-1.1,1.7-2.6,1.7-4.2c0-1.6-0.6-3.1-1.7-4.2c-1.1-1.1-2.6-1.7-4.2-1.7c-1.6,0-3.1,0.6-4.2,1.7c-1.1,1.1-1.7,2.6-1.7,4.2
				c0,1.6,0.6,3.1,1.7,4.2C349.4,94.1,350.9,94.7,352.5,94.7L352.5,94.7z M211.8,68.7c1.5,0,3-0.6,4-1.7c1.1-1.1,1.7-2.5,1.7-4
				c0-1.5-0.6-3-1.7-4c-1.1-1.1-2.5-1.7-4-1.7c-1.5,0-3,0.6-4,1.7c-1.1,1.1-1.7,2.5-1.7,4c0,1.5,0.6,3,1.7,4
				C208.8,68.1,210.3,68.7,211.8,68.7L211.8,68.7z M382.6,74.8c1.5,0,2.9-0.6,3.9-1.6c1-1,1.6-2.4,1.6-3.9c0-1.5-0.6-2.9-1.6-3.9
				s-2.4-1.6-3.9-1.6c-1.5,0-2.9,0.6-3.9,1.6c-1,1-1.6,2.4-1.6,3.9c0,1.5,0.6,2.9,1.6,3.9C379.8,74.2,381.2,74.8,382.6,74.8
				L382.6,74.8z M327.8,72.3c1.6,0,3.1-0.6,4.3-1.8c1.1-1.1,1.8-2.7,1.8-4.3c0-1.6-0.6-3.1-1.8-4.3c-1.1-1.1-2.7-1.8-4.3-1.8
				s-3.1,0.6-4.3,1.8c-1.1,1.1-1.8,2.7-1.8,4.3c0,1.6,0.6,3.1,1.8,4.3C324.7,71.6,326.2,72.3,327.8,72.3L327.8,72.3z M317.9,79.9
				c1.7,0,3.3-0.7,4.4-1.8c1.2-1.2,1.8-2.8,1.8-4.4s-0.7-3.3-1.8-4.4c-1.2-1.2-2.8-1.8-4.4-1.8c-1.7,0-3.3,0.7-4.4,1.8
				c-1.2,1.2-1.8,2.8-1.8,4.4s0.7,3.3,1.8,4.4C314.7,79.2,316.3,79.9,317.9,79.9L317.9,79.9z M285.6,35.7c1.7,0,3.3-0.7,4.4-1.8
				c1.2-1.2,1.8-2.8,1.8-4.4c0-1.7-0.7-3.3-1.8-4.4c-1.2-1.2-2.8-1.8-4.4-1.8c-1.7,0-3.3,0.7-4.4,1.8c-1.2,1.2-1.8,2.8-1.8,4.4
				c0,1.7,0.7,3.3,1.8,4.4C282.3,35.1,283.9,35.7,285.6,35.7L285.6,35.7z M119.5,112c1.7,0,3.4-0.7,4.7-1.9c1.2-1.2,1.9-2.9,1.9-4.7
				s-0.7-3.4-1.9-4.7c-1.2-1.2-2.9-1.9-4.7-1.9c-1.7,0-3.4,0.7-4.7,1.9c-1.2,1.2-1.9,2.9-1.9,4.7s0.7,3.4,1.9,4.7
				S117.7,112,119.5,112L119.5,112z M353.7,116.9c1.5,0,2.8-0.6,3.9-1.6c1-1,1.6-2.4,1.6-3.9c0-1.5-0.6-2.8-1.6-3.9
				c-1-1-2.4-1.6-3.9-1.6c-1.5,0-2.8,0.6-3.9,1.6c-1,1-1.6,2.4-1.6,3.9c0,1.5,0.6,2.8,1.6,3.9C350.9,116.4,352.2,116.9,353.7,116.9
				L353.7,116.9z M257.2,101.6c1.5,0,3-0.6,4-1.7c1.1-1.1,1.7-2.5,1.7-4s-0.6-3-1.7-4c-1.1-1.1-2.5-1.7-4-1.7c-1.5,0-3,0.6-4,1.7
				c-1.1,1.1-1.7,2.5-1.7,4s0.6,3,1.7,4C254.2,101,255.7,101.6,257.2,101.6L257.2,101.6z M25.3,44.1c1.7,0,3.3-0.7,4.5-1.8
				c1.2-1.2,1.8-2.8,1.8-4.5s-0.7-3.3-1.8-4.5c-1.2-1.2-2.8-1.8-4.5-1.8c-1.7,0-3.3,0.7-4.5,1.8c-1.2,1.2-1.8,2.8-1.8,4.5
				s0.7,3.3,1.8,4.5C22.1,43.5,23.7,44.1,25.3,44.1L25.3,44.1z M53.7,90c1.6,0,3.1-0.6,4.2-1.7c1.1-1.1,1.7-2.6,1.7-4.2
				S59,81,57.9,79.9c-1.1-1.1-2.6-1.7-4.2-1.7c-1.6,0-3.1,0.6-4.2,1.7c-1.1,1.1-1.7,2.6-1.7,4.2s0.6,3.1,1.7,4.2
				C50.6,89.3,52.1,90,53.7,90L53.7,90z M162.2,70.9c1.6,0,3-0.6,4.1-1.7c1.1-1.1,1.7-2.6,1.7-4.1c0-1.6-0.6-3-1.7-4.1
				c-1.1-1.1-2.6-1.7-4.1-1.7c-1.6,0-3,0.6-4.1,1.7c-1.1,1.1-1.7,2.6-1.7,4.1c0,1.6,0.6,3,1.7,4.1C159.1,70.3,160.6,70.9,162.2,70.9
				L162.2,70.9z M277.9,49.4c1.7,0,3.4-0.7,4.6-1.9c1.2-1.2,1.9-2.9,1.9-4.6c0-1.7-0.7-3.4-1.9-4.6c-1.2-1.2-2.9-1.9-4.6-1.9
				c-1.7,0-3.4,0.7-4.6,1.9c-1.2,1.2-1.9,2.9-1.9,4.6c0,1.7,0.7,3.4,1.9,4.6C274.5,48.7,276.2,49.4,277.9,49.4L277.9,49.4z
				 M309.2,99.2c1.6,0,3.1-0.6,4.2-1.7c1.1-1.1,1.7-2.6,1.7-4.2c0-1.6-0.6-3.1-1.7-4.2c-1.1-1.1-2.6-1.7-4.2-1.7
				c-1.6,0-3.1,0.6-4.2,1.7c-1.1,1.1-1.7,2.6-1.7,4.2c0,1.6,0.6,3.1,1.7,4.2C306.1,98.6,307.6,99.2,309.2,99.2L309.2,99.2z
				 M75.7,107.8c1.6,0,3.1-0.6,4.3-1.8c1.1-1.1,1.8-2.7,1.8-4.3s-0.6-3.1-1.8-4.3c-1.1-1.1-2.7-1.8-4.3-1.8c-1.6,0-3.1,0.6-4.3,1.8
				c-1.1,1.1-1.8,2.7-1.8,4.3s0.6,3.1,1.8,4.3C72.5,107.1,74.1,107.8,75.7,107.8L75.7,107.8z M221.8,75c1.6,0,3.1-0.6,4.2-1.7
				c1.1-1.1,1.7-2.6,1.7-4.2c0-1.6-0.6-3.1-1.7-4.2c-1.1-1.1-2.6-1.7-4.2-1.7c-1.6,0-3.1,0.6-4.2,1.7c-1.1,1.1-1.7,2.6-1.7,4.2
				c0,1.6,0.6,3.1,1.7,4.2C218.7,74.4,220.2,75,221.8,75L221.8,75z M161.8,22.9c1.7,0,3.4-0.7,4.7-1.9s1.9-2.9,1.9-4.7
				c0-1.7-0.7-3.4-1.9-4.7s-2.9-1.9-4.7-1.9c-1.7,0-3.4,0.7-4.7,1.9s-1.9,2.9-1.9,4.7c0,1.7,0.7,3.4,1.9,4.7S160,22.9,161.8,22.9
				L161.8,22.9z M408.5,36.9c1.5,0,3-0.6,4.1-1.7c1.1-1.1,1.7-2.6,1.7-4.1c0-1.5-0.6-3-1.7-4.1c-1.1-1.1-2.6-1.7-4.1-1.7
				c-1.5,0-3,0.6-4.1,1.7c-1.1,1.1-1.7,2.6-1.7,4.1c0,1.5,0.6,3,1.7,4.1C405.5,36.3,407,36.9,408.5,36.9L408.5,36.9z M328.8,84.2
				c1.5,0,2.9-0.6,4-1.6c1.1-1.1,1.6-2.5,1.6-4c0-1.5-0.6-2.9-1.6-4c-1.1-1.1-2.5-1.6-4-1.6c-1.5,0-2.9,0.6-4,1.6
				c-1.1,1.1-1.6,2.5-1.6,4c0,1.5,0.6,2.9,1.6,4C325.9,83.6,327.3,84.2,328.8,84.2L328.8,84.2z M393.6,67.5c1.7,0,3.4-0.7,4.6-1.9
				c1.2-1.2,1.9-2.9,1.9-4.6c0-1.7-0.7-3.4-1.9-4.6c-1.2-1.2-2.9-1.9-4.6-1.9c-1.7,0-3.4,0.7-4.6,1.9c-1.2,1.2-1.9,2.9-1.9,4.6
				c0,1.7,0.7,3.4,1.9,4.6C390.3,66.8,391.9,67.5,393.6,67.5L393.6,67.5z M12.7,20.6c1.6,0,3.2-0.7,4.4-1.8c1.2-1.2,1.8-2.7,1.8-4.4
				c0-1.6-0.7-3.2-1.8-4.4c-1.2-1.2-2.7-1.8-4.4-1.8S9.5,8.8,8.3,10c-1.2,1.2-1.8,2.7-1.8,4.4c0,1.6,0.7,3.2,1.8,4.4
				C9.5,19.9,11.1,20.6,12.7,20.6L12.7,20.6z M319.6,92.7c1.7,0,3.3-0.7,4.5-1.9c1.2-1.2,1.9-2.8,1.9-4.5c0-1.7-0.7-3.3-1.9-4.5
				c-1.2-1.2-2.8-1.9-4.5-1.9s-3.3,0.7-4.5,1.9c-1.2,1.2-1.9,2.8-1.9,4.5c0,1.7,0.7,3.3,1.9,4.5C316.3,92,317.9,92.7,319.6,92.7
				L319.6,92.7z M151.1,45.4c1.7,0,3.3-0.7,4.5-1.9c1.2-1.2,1.9-2.8,1.9-4.5s-0.7-3.3-1.9-4.5c-1.2-1.2-2.8-1.9-4.5-1.9
				c-1.7,0-3.3,0.7-4.5,1.9c-1.2,1.2-1.9,2.8-1.9,4.5s0.7,3.3,1.9,4.5C147.8,44.8,149.4,45.4,151.1,45.4L151.1,45.4z"/>
			<path class="st0" d="M358.7,64.2c1.8,0,3.5-0.7,4.7-2c1.3-1.3,2-3,2-4.7c0-1.8-0.7-3.5-2-4.7c-1.3-1.3-3-2-4.7-2
				c-1.8,0-3.5,0.7-4.7,2c-1.3,1.3-2,3-2,4.7c0,1.8,0.7,3.5,2,4.7C355.2,63.5,356.9,64.2,358.7,64.2L358.7,64.2z M73.6,66
				c1.5,0,3-0.6,4.1-1.7s1.7-2.6,1.7-4.1c0-1.5-0.6-3-1.7-4.1c-1.1-1.1-2.6-1.7-4.1-1.7s-3,0.6-4.1,1.7c-1.1,1.1-1.7,2.6-1.7,4.1
				c0,1.5,0.6,3,1.7,4.1C70.6,65.4,72,66,73.6,66L73.6,66z M144.4,56.1c1.7,0,3.3-0.7,4.5-1.8s1.8-2.8,1.8-4.5
				c0-1.7-0.7-3.3-1.8-4.5c-1.2-1.2-2.8-1.8-4.5-1.8s-3.3,0.7-4.5,1.8c-1.2,1.2-1.8,2.8-1.8,4.5c0,1.7,0.7,3.3,1.8,4.5
				S142.7,56.1,144.4,56.1L144.4,56.1z M305.7,63.1c1.5,0,2.8-0.6,3.9-1.6c1-1,1.6-2.4,1.6-3.9s-0.6-2.8-1.6-3.9
				c-1-1-2.4-1.6-3.9-1.6c-1.5,0-2.8,0.6-3.9,1.6c-1,1-1.6,2.4-1.6,3.9s0.6,2.8,1.6,3.9C302.9,62.5,304.3,63.1,305.7,63.1
				L305.7,63.1z M75.1,79.5c1.6,0,3.1-0.6,4.3-1.8c1.1-1.1,1.8-2.7,1.8-4.3c0-1.6-0.6-3.1-1.8-4.3c-1.1-1.1-2.7-1.8-4.3-1.8
				S72,68,70.8,69.1c-1.1,1.1-1.8,2.7-1.8,4.3c0,1.6,0.6,3.1,1.8,4.3C72,78.9,73.5,79.5,75.1,79.5L75.1,79.5z M310.2,36.7
				c1.6,0,3.2-0.7,4.4-1.8c1.2-1.2,1.8-2.7,1.8-4.4c0-1.6-0.7-3.2-1.8-4.4c-1.2-1.2-2.7-1.8-4.4-1.8c-1.6,0-3.2,0.7-4.4,1.8
				c-1.2,1.2-1.8,2.7-1.8,4.4c0,1.6,0.7,3.2,1.8,4.4S308.5,36.7,310.2,36.7L310.2,36.7z M214.2,51.2c1.5,0,2.9-0.6,4-1.6
				c1-1,1.6-2.5,1.6-4s-0.6-2.9-1.6-4c-1-1-2.5-1.6-4-1.6c-1.5,0-2.9,0.6-4,1.6c-1,1-1.6,2.5-1.6,4s0.6,2.9,1.6,4
				C211.2,50.6,212.7,51.2,214.2,51.2L214.2,51.2z M405.8,25.6c1.7,0,3.4-0.7,4.6-1.9c1.2-1.2,1.9-2.9,1.9-4.6
				c0-1.7-0.7-3.4-1.9-4.6c-1.2-1.2-2.9-1.9-4.6-1.9s-3.4,0.7-4.6,1.9c-1.2,1.2-1.9,2.9-1.9,4.6c0,1.7,0.7,3.4,1.9,4.6
				C402.5,24.9,404.1,25.6,405.8,25.6L405.8,25.6z M56.3,52.2c1.5,0,2.8-0.6,3.9-1.6c1-1,1.6-2.4,1.6-3.9c0-1.5-0.6-2.8-1.6-3.9
				c-1-1-2.4-1.6-3.9-1.6c-1.5,0-2.8,0.6-3.9,1.6c-1,1-1.6,2.4-1.6,3.9c0,1.5,0.6,2.8,1.6,3.9C53.5,51.6,54.9,52.2,56.3,52.2
				L56.3,52.2z M113.7,22.2c1.5,0,2.9-0.6,4-1.6c1.1-1.1,1.6-2.5,1.6-4c0-1.5-0.6-2.9-1.6-4c-1.1-1.1-2.5-1.6-4-1.6
				c-1.5,0-2.9,0.6-4,1.6c-1.1,1.1-1.6,2.5-1.6,4c0,1.5,0.6,2.9,1.6,4C110.8,21.7,112.3,22.2,113.7,22.2L113.7,22.2z M63,112.4
				c1.4,0,2.8-0.6,3.8-1.6c1-1,1.6-2.4,1.6-3.8c0-1.4-0.6-2.8-1.6-3.8c-1-1-2.4-1.6-3.8-1.6c-1.4,0-2.8,0.6-3.8,1.6
				c-1,1-1.6,2.4-1.6,3.8c0,1.4,0.6,2.8,1.6,3.8C60.2,111.8,61.6,112.4,63,112.4L63,112.4z M177.8,37.3c1.6,0,3.1-0.6,4.2-1.8
				c1.1-1.1,1.8-2.7,1.8-4.2s-0.6-3.1-1.8-4.2c-1.1-1.1-2.7-1.8-4.2-1.8c-1.6,0-3.1,0.6-4.2,1.8c-1.1,1.1-1.8,2.7-1.8,4.2
				s0.6,3.1,1.8,4.2C174.7,36.6,176.2,37.3,177.8,37.3L177.8,37.3z M149.5,20.5c1.5,0,3-0.6,4.1-1.7s1.7-2.6,1.7-4.1s-0.6-3-1.7-4.1
				c-1.1-1.1-2.6-1.7-4.1-1.7s-3,0.6-4.1,1.7c-1.1,1.1-1.7,2.6-1.7,4.1s0.6,3,1.7,4.1C146.4,19.9,147.9,20.5,149.5,20.5L149.5,20.5z
				 M110.3,79.8c1.7,0,3.2-0.7,4.4-1.8c1.2-1.2,1.8-2.8,1.8-4.4s-0.7-3.2-1.8-4.4c-1.2-1.2-2.8-1.8-4.4-1.8c-1.7,0-3.2,0.7-4.4,1.8
				c-1.2,1.2-1.8,2.8-1.8,4.4s0.7,3.2,1.8,4.4C107,79.2,108.6,79.8,110.3,79.8L110.3,79.8z M51.1,65.9c1.6,0,3.2-0.6,4.3-1.8
				c1.1-1.1,1.8-2.7,1.8-4.3c0-1.6-0.6-3.2-1.8-4.3c-1.1-1.1-2.7-1.8-4.3-1.8c-1.6,0-3.2,0.6-4.3,1.8c-1.1,1.1-1.8,2.7-1.8,4.3
				c0,1.6,0.6,3.2,1.8,4.3C47.9,65.3,49.5,65.9,51.1,65.9L51.1,65.9z M122,76.9c1.5,0,3-0.6,4-1.7c1.1-1.1,1.7-2.5,1.7-4
				c0-1.5-0.6-3-1.7-4c-1.1-1.1-2.5-1.7-4-1.7c-1.5,0-3,0.6-4,1.7c-1.1,1.1-1.7,2.5-1.7,4c0,1.5,0.6,3,1.7,4
				C119,76.3,120.5,76.9,122,76.9L122,76.9z M112.5,100.9c1.6,0,3.2-0.6,4.3-1.8c1.1-1.1,1.8-2.7,1.8-4.3s-0.6-3.2-1.8-4.3
				c-1.1-1.1-2.7-1.8-4.3-1.8c-1.6,0-3.2,0.6-4.3,1.8c-1.1,1.1-1.8,2.7-1.8,4.3s0.6,3.2,1.8,4.3
				C109.3,100.3,110.8,100.9,112.5,100.9L112.5,100.9z M252.5,27.5c1.7,0,3.4-0.7,4.6-1.9c1.2-1.2,1.9-2.9,1.9-4.6
				c0-1.7-0.7-3.4-1.9-4.6c-1.2-1.2-2.9-1.9-4.6-1.9c-1.7,0-3.4,0.7-4.6,1.9c-1.2,1.2-1.9,2.9-1.9,4.6c0,1.7,0.7,3.4,1.9,4.6
				C249.2,26.8,250.8,27.5,252.5,27.5L252.5,27.5z M414.3,92.8c1.5,0,2.9-0.6,3.9-1.6c1-1,1.6-2.5,1.6-3.9c0-1.5-0.6-2.9-1.6-3.9
				c-1-1-2.5-1.6-3.9-1.6c-1.5,0-2.9,0.6-3.9,1.6c-1,1-1.6,2.5-1.6,3.9c0,1.5,0.6,2.9,1.6,3.9C411.4,92.2,412.8,92.8,414.3,92.8
				L414.3,92.8z M271.6,15.5c1.7,0,3.2-0.7,4.4-1.8c1.2-1.2,1.8-2.8,1.8-4.4S277.2,6,276,4.9c-1.2-1.2-2.8-1.8-4.4-1.8
				s-3.2,0.7-4.4,1.8s-1.8,2.8-1.8,4.4s0.7,3.2,1.8,4.4C268.4,14.9,270,15.5,271.6,15.5L271.6,15.5z M199.8,86.6
				c1.7,0,3.3-0.7,4.5-1.9c1.2-1.2,1.9-2.8,1.9-4.5c0-1.7-0.7-3.3-1.9-4.5c-1.2-1.2-2.8-1.9-4.5-1.9c-1.7,0-3.3,0.7-4.5,1.9
				s-1.9,2.8-1.9,4.5c0,1.7,0.7,3.3,1.9,4.5C196.5,85.9,198.1,86.6,199.8,86.6L199.8,86.6z M299.7,107.9c1.7,0,3.4-0.7,4.6-1.9
				c1.2-1.2,1.9-2.9,1.9-4.6s-0.7-3.4-1.9-4.6c-1.2-1.2-2.9-1.9-4.6-1.9c-1.7,0-3.4,0.7-4.6,1.9c-1.2,1.2-1.9,2.9-1.9,4.6
				s0.7,3.4,1.9,4.6S297.9,107.9,299.7,107.9L299.7,107.9z M184.7,67c1.5,0,3-0.6,4.1-1.7c1.1-1.1,1.7-2.5,1.7-4.1
				c0-1.5-0.6-3-1.7-4.1c-1.1-1.1-2.5-1.7-4.1-1.7s-3,0.6-4.1,1.7c-1.1,1.1-1.7,2.5-1.7,4.1c0,1.5,0.6,3,1.7,4.1
				C181.7,66.4,183.2,67,184.7,67L184.7,67z M154.3,82.3c1.6,0,3-0.6,4.1-1.7c1.1-1.1,1.7-2.6,1.7-4.1c0-1.6-0.6-3-1.7-4.1
				c-1.1-1.1-2.6-1.7-4.1-1.7c-1.6,0-3,0.6-4.1,1.7c-1.1,1.1-1.7,2.6-1.7,4.1c0,1.6,0.6,3,1.7,4.1C151.2,81.7,152.7,82.3,154.3,82.3
				L154.3,82.3z M289.6,114.1c1.5,0,3-0.6,4-1.7c1.1-1.1,1.7-2.5,1.7-4c0-1.5-0.6-3-1.7-4c-1.1-1.1-2.5-1.7-4-1.7
				c-1.5,0-3,0.6-4,1.7c-1.1,1.1-1.7,2.5-1.7,4c0,1.5,0.6,3,1.7,4C286.6,113.5,288.1,114.1,289.6,114.1L289.6,114.1z M326.5,60.3
				c1.5,0,2.9-0.6,3.9-1.6c1-1,1.6-2.4,1.6-3.9c0-1.5-0.6-2.9-1.6-3.9c-1-1-2.4-1.6-3.9-1.6c-1.5,0-2.9,0.6-3.9,1.6
				c-1,1-1.6,2.4-1.6,3.9c0,1.5,0.6,2.9,1.6,3.9C323.6,59.7,325.1,60.3,326.5,60.3L326.5,60.3z M332.3,108.9c1.7,0,3.3-0.7,4.6-1.9
				c1.2-1.2,1.9-2.8,1.9-4.6s-0.7-3.3-1.9-4.6c-1.2-1.2-2.8-1.9-4.6-1.9c-1.7,0-3.3,0.7-4.6,1.9c-1.2,1.2-1.9,2.8-1.9,4.6
				s0.7,3.3,1.9,4.6C329,108.2,330.6,108.9,332.3,108.9L332.3,108.9z M286,90.6c1.5,0,2.9-0.6,3.9-1.6c1-1,1.6-2.4,1.6-3.9
				c0-1.5-0.6-2.9-1.6-3.9c-1-1-2.4-1.6-3.9-1.6c-1.5,0-2.9,0.6-3.9,1.6c-1,1-1.6,2.4-1.6,3.9c0,1.5,0.6,2.9,1.6,3.9
				C283.1,90,284.5,90.6,286,90.6L286,90.6z M246.4,38.5c1.7,0,3.3-0.7,4.5-1.9c1.2-1.2,1.9-2.8,1.9-4.5c0-1.7-0.7-3.3-1.9-4.5
				c-1.2-1.2-2.8-1.9-4.5-1.9c-1.7,0-3.3,0.7-4.5,1.9c-1.2,1.2-1.9,2.8-1.9,4.5c0,1.7,0.7,3.3,1.9,4.5
				C243.1,37.9,244.7,38.5,246.4,38.5L246.4,38.5z M51.8,22.9c1.5,0,2.9-0.6,4-1.6c1.1-1.1,1.6-2.5,1.6-4c0-1.5-0.6-2.9-1.6-4
				c-1.1-1.1-2.5-1.6-4-1.6c-1.5,0-2.9,0.6-4,1.6c-1.1,1.1-1.6,2.5-1.6,4c0,1.5,0.6,2.9,1.6,4C48.9,22.3,50.3,22.9,51.8,22.9
				L51.8,22.9z M15.4,86.7c1.6,0,3.1-0.6,4.2-1.7c1.1-1.1,1.7-2.6,1.7-4.2c0-1.6-0.6-3.1-1.7-4.2c-1.1-1.1-2.6-1.7-4.2-1.7
				c-1.6,0-3.1,0.6-4.2,1.7c-1.1,1.1-1.7,2.6-1.7,4.2c0,1.6,0.6,3.1,1.7,4.2C12.4,86.1,13.9,86.7,15.4,86.7L15.4,86.7z M83.8,115.2
				c1.4,0,2.8-0.6,3.8-1.6c1-1,1.6-2.4,1.6-3.8s-0.6-2.8-1.6-3.8c-1-1-2.4-1.6-3.8-1.6c-1.4,0-2.8,0.6-3.8,1.6c-1,1-1.6,2.4-1.6,3.8
				s0.6,2.8,1.6,3.8C81,114.6,82.4,115.2,83.8,115.2L83.8,115.2z M28.2,106.3c1.5,0,2.9-0.6,4-1.6c1.1-1.1,1.6-2.5,1.6-4
				s-0.6-2.9-1.6-4c-1.1-1.1-2.5-1.6-4-1.6c-1.5,0-2.9,0.6-4,1.6c-1.1,1.1-1.6,2.5-1.6,4s0.6,2.9,1.6,4
				C25.3,105.7,26.7,106.3,28.2,106.3L28.2,106.3z M197.8,51.7c1.6,0,3.2-0.7,4.4-1.8c1.2-1.2,1.8-2.7,1.8-4.4s-0.7-3.2-1.8-4.4
				c-1.2-1.2-2.7-1.8-4.4-1.8c-1.6,0-3.2,0.7-4.4,1.8c-1.2,1.2-1.8,2.7-1.8,4.4s0.7,3.2,1.8,4.4C194.6,51.1,196.2,51.7,197.8,51.7
				L197.8,51.7z M362.9,88.6c1.7,0,3.3-0.7,4.5-1.9c1.2-1.2,1.9-2.8,1.9-4.5c0-1.7-0.7-3.3-1.9-4.5c-1.2-1.2-2.8-1.9-4.5-1.9
				c-1.7,0-3.3,0.7-4.5,1.9c-1.2,1.2-1.9,2.8-1.9,4.5c0,1.7,0.7,3.3,1.9,4.5C359.6,87.9,361.2,88.6,362.9,88.6L362.9,88.6z
				 M211.2,80.9c1.6,0,3.2-0.6,4.3-1.8c1.1-1.1,1.8-2.7,1.8-4.3c0-1.6-0.6-3.2-1.8-4.3c-1.1-1.1-2.7-1.8-4.3-1.8
				c-1.6,0-3.2,0.6-4.3,1.8c-1.1,1.1-1.8,2.7-1.8,4.3c0,1.6,0.6,3.2,1.8,4.3C208,80.3,209.6,80.9,211.2,80.9L211.2,80.9z
				 M367.7,48.3c1.5,0,3-0.6,4.1-1.7c1.1-1.1,1.7-2.6,1.7-4.1s-0.6-3-1.7-4.1c-1.1-1.1-2.6-1.7-4.1-1.7c-1.5,0-3,0.6-4.1,1.7
				c-1.1,1.1-1.7,2.6-1.7,4.1s0.6,3,1.7,4.1C364.7,47.7,366.1,48.3,367.7,48.3L367.7,48.3z M234,90.8c1.5,0,2.9-0.6,4-1.7
				c1.1-1.1,1.7-2.5,1.7-4c0-1.5-0.6-2.9-1.7-4c-1.1-1.1-2.5-1.7-4-1.7c-1.5,0-2.9,0.6-4,1.7c-1.1,1.1-1.7,2.5-1.7,4
				c0,1.5,0.6,2.9,1.7,4C231.1,90.2,232.5,90.8,234,90.8L234,90.8z M93.3,91.6c1.4,0,2.8-0.6,3.8-1.6c1-1,1.6-2.4,1.6-3.8
				c0-1.4-0.6-2.8-1.6-3.8c-1-1-2.4-1.6-3.8-1.6c-1.4,0-2.8,0.6-3.8,1.6c-1,1-1.6,2.4-1.6,3.8c0,1.4,0.6,2.8,1.6,3.8
				C90.5,91,91.9,91.6,93.3,91.6L93.3,91.6z M223.5,98.5c1.7,0,3.3-0.7,4.4-1.8c1.2-1.2,1.8-2.8,1.8-4.4s-0.7-3.3-1.8-4.4
				c-1.2-1.2-2.8-1.8-4.4-1.8s-3.3,0.7-4.4,1.8c-1.2,1.2-1.8,2.8-1.8,4.4s0.7,3.3,1.8,4.4C220.3,97.9,221.9,98.5,223.5,98.5
				L223.5,98.5z M403.8,73.4c1.5,0,2.9-0.6,4-1.7c1.1-1.1,1.7-2.5,1.7-4c0-1.5-0.6-2.9-1.7-4c-1.1-1.1-2.5-1.7-4-1.7s-2.9,0.6-4,1.7
				c-1.1,1.1-1.7,2.5-1.7,4c0,1.5,0.6,2.9,1.7,4C400.8,72.8,402.3,73.4,403.8,73.4L403.8,73.4z M149.5,100.3c1.7,0,3.3-0.7,4.5-1.9
				c1.2-1.2,1.9-2.8,1.9-4.5c0-1.7-0.7-3.3-1.9-4.5c-1.2-1.2-2.8-1.9-4.5-1.9s-3.3,0.7-4.5,1.9c-1.2,1.2-1.9,2.8-1.9,4.5
				c0,1.7,0.7,3.3,1.9,4.5C146.1,99.6,147.8,100.3,149.5,100.3L149.5,100.3z M273,37.4c1.7,0,3.3-0.7,4.5-1.9
				c1.2-1.2,1.9-2.8,1.9-4.5c0-1.7-0.7-3.3-1.9-4.5c-1.2-1.2-2.8-1.9-4.5-1.9c-1.7,0-3.3,0.7-4.5,1.9c-1.2,1.2-1.9,2.8-1.9,4.5
				c0,1.7,0.7,3.3,1.9,4.5C269.6,36.7,271.3,37.4,273,37.4L273,37.4z M347.2,57.9c1.6,0,3.2-0.7,4.4-1.8c1.2-1.2,1.8-2.7,1.8-4.4
				c0-1.6-0.7-3.2-1.8-4.4c-1.2-1.2-2.7-1.8-4.4-1.8c-1.6,0-3.2,0.7-4.4,1.8c-1.2,1.2-1.8,2.7-1.8,4.4c0,1.6,0.7,3.2,1.8,4.4
				C344,57.2,345.5,57.9,347.2,57.9L347.2,57.9z M240.1,27.2c1.6,0,3.1-0.6,4.2-1.8c1.1-1.1,1.8-2.6,1.8-4.2c0-1.6-0.6-3.1-1.8-4.2
				c-1.1-1.1-2.6-1.8-4.2-1.8c-1.6,0-3.1,0.6-4.2,1.8c-1.1,1.1-1.8,2.6-1.8,4.2c0,1.6,0.6,3.1,1.8,4.2S238.5,27.2,240.1,27.2
				L240.1,27.2z M137.2,98.8c1.6,0,3.1-0.6,4.2-1.7c1.1-1.1,1.7-2.6,1.7-4.2c0-1.6-0.6-3.1-1.7-4.2c-1.1-1.1-2.6-1.7-4.2-1.7
				c-1.6,0-3.1,0.6-4.2,1.7c-1.1,1.1-1.7,2.6-1.7,4.2c0,1.6,0.6,3.1,1.7,4.2C134.1,98.2,135.6,98.8,137.2,98.8L137.2,98.8z
				 M225.4,48.1c1.7,0,3.2-0.7,4.4-1.8c1.2-1.2,1.8-2.8,1.8-4.4c0-1.7-0.7-3.2-1.8-4.4c-1.2-1.2-2.8-1.8-4.4-1.8s-3.2,0.7-4.4,1.8
				c-1.2,1.2-1.8,2.8-1.8,4.4c0,1.7,0.7,3.2,1.8,4.4C222.2,47.5,223.7,48.1,225.4,48.1L225.4,48.1z M397.9,45.8
				c1.4,0,2.8-0.6,3.8-1.6c1-1,1.6-2.4,1.6-3.8c0-1.4-0.6-2.8-1.6-3.8c-1-1-2.4-1.6-3.8-1.6c-1.4,0-2.8,0.6-3.8,1.6
				c-1,1-1.6,2.4-1.6,3.8c0,1.4,0.6,2.8,1.6,3.8C395,45.2,396.4,45.8,397.9,45.8L397.9,45.8z M183.6,89.8c1.7,0,3.4-0.7,4.7-1.9
				c1.2-1.2,1.9-2.9,1.9-4.7c0-1.7-0.7-3.4-1.9-4.7c-1.2-1.2-2.9-1.9-4.7-1.9c-1.7,0-3.4,0.7-4.7,1.9c-1.2,1.2-1.9,2.9-1.9,4.7
				c0,1.7,0.7,3.4,1.9,4.7C180.2,89.1,181.9,89.8,183.6,89.8L183.6,89.8z M306.4,75.3c1.6,0,3.2-0.6,4.3-1.8
				c1.1-1.1,1.8-2.7,1.8-4.3c0-1.6-0.6-3.2-1.8-4.3c-1.1-1.1-2.7-1.8-4.3-1.8c-1.6,0-3.2,0.6-4.3,1.8c-1.1,1.1-1.8,2.7-1.8,4.3
				c0,1.6,0.6,3.2,1.8,4.3C303.2,74.6,304.8,75.3,306.4,75.3L306.4,75.3z M132,34.4c1.7,0,3.4-0.7,4.6-1.9c1.2-1.2,1.9-2.9,1.9-4.6
				c0-1.7-0.7-3.4-1.9-4.6c-1.2-1.2-2.9-1.9-4.6-1.9c-1.7,0-3.4,0.7-4.6,1.9c-1.2,1.2-1.9,2.9-1.9,4.6c0,1.7,0.7,3.4,1.9,4.6
				C128.7,33.7,130.3,34.4,132,34.4L132,34.4z M335.7,53.8c1.6,0,3-0.6,4.1-1.7c1.1-1.1,1.7-2.6,1.7-4.1c0-1.6-0.6-3-1.7-4.1
				c-1.1-1.1-2.6-1.7-4.1-1.7c-1.6,0-3,0.6-4.1,1.7c-1.1,1.1-1.7,2.6-1.7,4.1c0,1.6,0.6,3,1.7,4.1C332.7,53.2,334.2,53.8,335.7,53.8
				L335.7,53.8z M255,90.4c1.8,0,3.4-0.7,4.7-1.9c1.2-1.2,1.9-2.9,1.9-4.7c0-1.8-0.7-3.4-1.9-4.7c-1.2-1.2-2.9-1.9-4.7-1.9
				c-1.8,0-3.4,0.7-4.7,1.9c-1.2,1.2-1.9,2.9-1.9,4.7c0,1.8,0.7,3.4,1.9,4.7C251.5,89.7,253.2,90.4,255,90.4L255,90.4z M337.5,20
				c1.6,0,3.2-0.6,4.3-1.8c1.1-1.1,1.8-2.7,1.8-4.3c0-1.6-0.6-3.2-1.8-4.3c-1.1-1.1-2.7-1.8-4.3-1.8c-1.6,0-3.2,0.6-4.3,1.8
				c-1.1,1.1-1.8,2.7-1.8,4.3c0,1.6,0.6,3.2,1.8,4.3C334.4,19.4,335.9,20,337.5,20L337.5,20z M225.1,26.1c1.7,0,3.3-0.7,4.5-1.9
				c1.2-1.2,1.9-2.8,1.9-4.5c0-1.7-0.7-3.3-1.9-4.5c-1.2-1.2-2.8-1.9-4.5-1.9c-1.7,0-3.3,0.7-4.5,1.9c-1.2,1.2-1.9,2.8-1.9,4.5
				c0,1.7,0.7,3.3,1.9,4.5C221.8,25.4,223.4,26.1,225.1,26.1L225.1,26.1z M167.1,104.6c1.8,0,3.5-0.7,4.7-2c1.3-1.3,2-3,2-4.7
				c0-1.8-0.7-3.5-2-4.7c-1.3-1.3-3-2-4.7-2c-1.8,0-3.5,0.7-4.7,2c-1.3,1.3-2,3-2,4.7c0,1.8,0.7,3.5,2,4.7
				C163.7,103.9,165.4,104.6,167.1,104.6L167.1,104.6z M421.5,112.6c1.7,0,3.3-0.7,4.5-1.8c1.2-1.2,1.8-2.8,1.8-4.5
				c0-1.7-0.7-3.3-1.8-4.5c-1.2-1.2-2.8-1.8-4.5-1.8c-1.7,0-3.3,0.7-4.5,1.8c-1.2,1.2-1.8,2.8-1.8,4.5c0,1.7,0.7,3.3,1.8,4.5
				C418.2,112,419.8,112.6,421.5,112.6L421.5,112.6z M86.7,102.3c1.7,0,3.3-0.7,4.5-1.9c1.2-1.2,1.9-2.8,1.9-4.5
				c0-1.7-0.7-3.3-1.9-4.5c-1.2-1.2-2.8-1.9-4.5-1.9c-1.7,0-3.3,0.7-4.5,1.9c-1.2,1.2-1.9,2.8-1.9,4.5c0,1.7,0.7,3.3,1.9,4.5
				C83.3,101.6,85,102.3,86.7,102.3L86.7,102.3z M95.3,32.2c1.4,0,2.8-0.6,3.8-1.6c1-1,1.6-2.4,1.6-3.8s-0.6-2.8-1.6-3.8
				c-1-1-2.4-1.6-3.8-1.6c-1.4,0-2.8,0.6-3.8,1.6c-1,1-1.6,2.4-1.6,3.8s0.6,2.8,1.6,3.8C92.5,31.6,93.8,32.2,95.3,32.2L95.3,32.2z
				 M237.7,47.2c1.6,0,3.2-0.6,4.3-1.8c1.1-1.1,1.8-2.7,1.8-4.3c0-1.6-0.6-3.2-1.8-4.3c-1.1-1.1-2.7-1.8-4.3-1.8
				c-1.6,0-3.2,0.6-4.3,1.8c-1.1,1.1-1.8,2.7-1.8,4.3c0,1.6,0.6,3.2,1.8,4.3C234.5,46.6,236.1,47.2,237.7,47.2L237.7,47.2z
				 M58.4,102.4c1.8,0,3.5-0.7,4.7-1.9c1.2-1.2,1.9-2.9,1.9-4.7c0-1.8-0.7-3.5-1.9-4.7c-1.2-1.2-2.9-1.9-4.7-1.9
				c-1.8,0-3.5,0.7-4.7,1.9s-1.9,2.9-1.9,4.7c0,1.8,0.7,3.5,1.9,4.7S56.7,102.4,58.4,102.4L58.4,102.4z M360.6,26.9
				c1.8,0,3.5-0.7,4.7-1.9c1.2-1.2,1.9-2.9,1.9-4.7c0-1.8-0.7-3.5-1.9-4.7c-1.2-1.2-2.9-1.9-4.7-1.9c-1.8,0-3.5,0.7-4.7,1.9
				c-1.2,1.2-1.9,2.9-1.9,4.7c0,1.8,0.7,3.5,1.9,4.7C357.1,26.2,358.8,26.9,360.6,26.9L360.6,26.9z M333,40.4c1.5,0,3-0.6,4-1.7
				c1.1-1.1,1.7-2.5,1.7-4c0-1.5-0.6-3-1.7-4c-1.1-1.1-2.5-1.7-4-1.7c-1.5,0-3,0.6-4,1.7c-1.1,1.1-1.7,2.5-1.7,4c0,1.5,0.6,3,1.7,4
				C330,39.8,331.5,40.4,333,40.4L333,40.4z M154.2,33.2c1.6,0,3.2-0.6,4.3-1.8c1.1-1.1,1.8-2.7,1.8-4.3c0-1.6-0.6-3.2-1.8-4.3
				c-1.1-1.1-2.7-1.8-4.3-1.8s-3.2,0.6-4.3,1.8c-1.1,1.1-1.8,2.7-1.8,4.3c0,1.6,0.6,3.2,1.8,4.3C151.1,32.5,152.6,33.2,154.2,33.2
				L154.2,33.2z M429.5,48.2c1.5,0,2.9-0.6,4-1.6c1.1-1.1,1.6-2.5,1.6-4c0-1.5-0.6-2.9-1.6-4c-1.1-1.1-2.5-1.6-4-1.6
				c-1.5,0-2.9,0.6-4,1.6c-1.1,1.1-1.6,2.5-1.6,4c0,1.5,0.6,2.9,1.6,4C426.5,47.6,428,48.2,429.5,48.2L429.5,48.2z M201.9,22.3
				c1.7,0,3.4-0.7,4.6-1.9c1.2-1.2,1.9-2.9,1.9-4.6c0-1.7-0.7-3.4-1.9-4.6c-1.2-1.2-2.9-1.9-4.6-1.9c-1.7,0-3.4,0.7-4.6,1.9
				c-1.2,1.2-1.9,2.9-1.9,4.6c0,1.7,0.7,3.4,1.9,4.6C198.6,21.6,200.2,22.3,201.9,22.3L201.9,22.3z M101.8,41.7c1.5,0,3-0.6,4.1-1.7
				c1.1-1.1,1.7-2.6,1.7-4.1c0-1.5-0.6-3-1.7-4.1c-1.1-1.1-2.6-1.7-4.1-1.7s-3,0.6-4.1,1.7S96,34.3,96,35.9c0,1.5,0.6,3,1.7,4.1
				C98.8,41.1,100.3,41.7,101.8,41.7L101.8,41.7z M246.5,108.1c1.7,0,3.3-0.7,4.6-1.9c1.2-1.2,1.9-2.8,1.9-4.6
				c0-1.7-0.7-3.3-1.9-4.6c-1.2-1.2-2.8-1.9-4.6-1.9c-1.7,0-3.3,0.7-4.6,1.9c-1.2,1.2-1.9,2.8-1.9,4.6c0,1.7,0.7,3.3,1.9,4.6
				C243.2,107.4,244.8,108.1,246.5,108.1L246.5,108.1z M428.8,24c1.6,0,3.1-0.6,4.2-1.7c1.1-1.1,1.7-2.6,1.7-4.2
				c0-1.6-0.6-3.1-1.7-4.2c-1.1-1.1-2.6-1.7-4.2-1.7c-1.6,0-3.1,0.6-4.2,1.7c-1.1,1.1-1.7,2.6-1.7,4.2c0,1.6,0.6,3.1,1.7,4.2
				C425.7,23.3,427.2,24,428.8,24L428.8,24z M32,33.4c1.8,0,3.4-0.7,4.7-1.9c1.2-1.2,1.9-2.9,1.9-4.7c0-1.8-0.7-3.4-1.9-4.7
				c-1.2-1.2-2.9-1.9-4.7-1.9c-1.8,0-3.4,0.7-4.7,1.9c-1.2,1.2-1.9,2.9-1.9,4.7c0,1.8,0.7,3.4,1.9,4.7C28.5,32.7,30.2,33.4,32,33.4
				L32,33.4z M167.8,56.5c1.4,0,2.8-0.6,3.8-1.6c1-1,1.6-2.4,1.6-3.8s-0.6-2.8-1.6-3.8c-1-1-2.4-1.6-3.8-1.6s-2.8,0.6-3.8,1.6
				c-1,1-1.6,2.4-1.6,3.8s0.6,2.8,1.6,3.8C165,55.9,166.4,56.5,167.8,56.5L167.8,56.5z M17,106c1.5,0,2.9-0.6,3.9-1.6
				c1-1,1.6-2.5,1.6-3.9c0-1.5-0.6-2.9-1.6-3.9c-1-1-2.5-1.6-3.9-1.6s-2.9,0.6-3.9,1.6c-1,1-1.6,2.5-1.6,3.9c0,1.5,0.6,2.9,1.6,3.9
				C14.1,105.4,15.5,106,17,106L17,106z M393.5,79.9c1.6,0,3.2-0.7,4.4-1.8c1.2-1.2,1.8-2.7,1.8-4.4c0-1.6-0.7-3.2-1.8-4.4
				c-1.2-1.2-2.7-1.8-4.4-1.8s-3.2,0.7-4.4,1.8c-1.2,1.2-1.8,2.7-1.8,4.4c0,1.6,0.7,3.2,1.8,4.4C390.3,79.3,391.9,79.9,393.5,79.9
				L393.5,79.9z M277.3,97.2c1.4,0,2.8-0.6,3.9-1.6c1-1,1.6-2.4,1.6-3.9c0-1.4-0.6-2.8-1.6-3.9c-1-1-2.4-1.6-3.9-1.6
				c-1.4,0-2.8,0.6-3.9,1.6c-1,1-1.6,2.4-1.6,3.9c0,1.4,0.6,2.8,1.6,3.9C274.5,96.6,275.8,97.2,277.3,97.2L277.3,97.2z M297.6,95
				c1.7,0,3.4-0.7,4.6-1.9c1.2-1.2,1.9-2.9,1.9-4.6s-0.7-3.4-1.9-4.6c-1.2-1.2-2.9-1.9-4.6-1.9c-1.7,0-3.4,0.7-4.6,1.9
				c-1.2,1.2-1.9,2.9-1.9,4.6s0.7,3.4,1.9,4.6C294.2,94.3,295.9,95,297.6,95L297.6,95z M84.6,67.8c1.4,0,2.8-0.6,3.8-1.6
				c1-1,1.6-2.4,1.6-3.8c0-1.4-0.6-2.8-1.6-3.8c-1-1-2.4-1.6-3.8-1.6c-1.4,0-2.8,0.6-3.8,1.6c-1,1-1.6,2.4-1.6,3.8
				c0,1.4,0.6,2.8,1.6,3.8C81.8,67.2,83.2,67.8,84.6,67.8L84.6,67.8z M143.2,29.3c1.4,0,2.8-0.6,3.8-1.6c1-1,1.6-2.4,1.6-3.8
				c0-1.4-0.6-2.8-1.6-3.8c-1-1-2.4-1.6-3.8-1.6c-1.4,0-2.8,0.6-3.8,1.6c-1,1-1.6,2.4-1.6,3.8c0,1.4,0.6,2.8,1.6,3.8
				C140.4,28.8,141.8,29.3,143.2,29.3L143.2,29.3z M179.2,15.8c1.7,0,3.4-0.7,4.6-1.9c1.2-1.2,1.9-2.9,1.9-4.6S185,6,183.8,4.8
				c-1.2-1.2-2.9-1.9-4.6-1.9c-1.7,0-3.4,0.7-4.6,1.9c-1.2,1.2-1.9,2.9-1.9,4.6s0.7,3.4,1.9,4.6C175.8,15.1,177.5,15.8,179.2,15.8
				L179.2,15.8z M89.5,22.9c1.6,0,3.1-0.6,4.2-1.7c1.1-1.1,1.7-2.6,1.7-4.2s-0.6-3.1-1.7-4.2c-1.1-1.1-2.6-1.7-4.2-1.7
				s-3.1,0.6-4.2,1.7c-1.1,1.1-1.7,2.6-1.7,4.2s0.6,3.1,1.7,4.2C86.4,22.3,87.9,22.9,89.5,22.9L89.5,22.9z M206.5,42.8
				c1.6,0,3.2-0.7,4.4-1.8c1.2-1.2,1.8-2.7,1.8-4.4s-0.7-3.2-1.8-4.4c-1.2-1.2-2.7-1.8-4.4-1.8s-3.2,0.7-4.4,1.8
				c-1.2,1.2-1.8,2.7-1.8,4.4s0.7,3.2,1.8,4.4C203.2,42.2,204.8,42.8,206.5,42.8L206.5,42.8z M50.2,43c1.6,0,3.1-0.6,4.2-1.7
				c1.1-1.1,1.7-2.6,1.7-4.2s-0.6-3.1-1.7-4.2c-1.1-1.1-2.6-1.7-4.2-1.7c-1.6,0-3.1,0.6-4.2,1.7c-1.1,1.1-1.7,2.6-1.7,4.2
				s0.6,3.1,1.7,4.2C47.1,42.4,48.7,43,50.2,43L50.2,43z M130.9,88.6c1.7,0,3.3-0.7,4.5-1.9c1.2-1.2,1.9-2.8,1.9-4.5
				c0-1.7-0.7-3.3-1.9-4.5s-2.8-1.9-4.5-1.9c-1.7,0-3.3,0.7-4.5,1.9c-1.2,1.2-1.9,2.8-1.9,4.5c0,1.7,0.7,3.3,1.9,4.5
				C127.6,88,129.2,88.6,130.9,88.6L130.9,88.6z M265.5,27c1.7,0,3.4-0.7,4.6-1.9c1.2-1.2,1.9-2.9,1.9-4.6s-0.7-3.4-1.9-4.6
				c-1.2-1.2-2.9-1.9-4.6-1.9c-1.7,0-3.4,0.7-4.6,1.9s-1.9,2.9-1.9,4.6s0.7,3.4,1.9,4.6C262.1,26.3,263.8,27,265.5,27L265.5,27z
				 M314,55.3c1.7,0,3.4-0.7,4.6-1.9c1.2-1.2,1.9-2.9,1.9-4.6c0-1.7-0.7-3.4-1.9-4.6c-1.2-1.2-2.9-1.9-4.6-1.9
				c-1.7,0-3.4,0.7-4.6,1.9c-1.2,1.2-1.9,2.9-1.9,4.6c0,1.7,0.7,3.4,1.9,4.6C310.6,54.7,312.2,55.3,314,55.3L314,55.3z M150.7,67.2
				c1.7,0,3.3-0.7,4.5-1.9s1.9-2.8,1.9-4.5c0-1.7-0.7-3.3-1.9-4.5s-2.8-1.9-4.5-1.9c-1.7,0-3.3,0.7-4.5,1.9
				c-1.2,1.2-1.9,2.8-1.9,4.5c0,1.7,0.7,3.3,1.9,4.5C147.4,66.5,149,67.2,150.7,67.2L150.7,67.2z M70.4,96.9c1.7,0,3.4-0.7,4.6-1.9
				c1.2-1.2,1.9-2.9,1.9-4.6c0-1.7-0.7-3.4-1.9-4.6c-1.2-1.2-2.9-1.9-4.6-1.9c-1.7,0-3.4,0.7-4.6,1.9c-1.2,1.2-1.9,2.9-1.9,4.6
				c0,1.7,0.7,3.4,1.9,4.6C67,96.2,68.7,96.9,70.4,96.9L70.4,96.9z M13.7,64.5c1.5,0,2.9-0.6,3.9-1.6s1.6-2.4,1.6-3.9
				c0-1.5-0.6-2.9-1.6-3.9c-1-1-2.4-1.6-3.9-1.6c-1.5,0-2.9,0.6-3.9,1.6c-1,1-1.6,2.4-1.6,3.9c0,1.5,0.6,2.9,1.6,3.9
				S12.3,64.5,13.7,64.5L13.7,64.5z M69.5,12.7c1.6,0,3.1-0.6,4.2-1.7c1.1-1.1,1.7-2.6,1.7-4.2c0-1.6-0.6-3.1-1.7-4.2
				c-1.1-1.1-2.6-1.7-4.2-1.7c-1.6,0-3.1,0.6-4.2,1.7s-1.7,2.6-1.7,4.2c0,1.6,0.6,3.1,1.7,4.2S68,12.7,69.5,12.7L69.5,12.7z
				 M373.3,119.6c1.7,0,3.4-0.7,4.6-1.9c1.2-1.2,1.9-2.9,1.9-4.6c0-1.7-0.7-3.4-1.9-4.6c-1.2-1.2-2.9-1.9-4.6-1.9
				c-1.7,0-3.4,0.7-4.6,1.9s-1.9,2.9-1.9,4.6c0,1.7,0.7,3.4,1.9,4.6C369.9,118.9,371.6,119.6,373.3,119.6L373.3,119.6z M138,19.9
				c1.5,0,2.9-0.6,4-1.7c1.1-1.1,1.7-2.5,1.7-4c0-1.5-0.6-2.9-1.7-4s-2.5-1.7-4-1.7s-2.9,0.6-4,1.7s-1.7,2.5-1.7,4
				c0,1.5,0.6,2.9,1.7,4C135,19.3,136.5,19.9,138,19.9L138,19.9z M160.1,93.3c1.6,0,3.2-0.7,4.4-1.8c1.2-1.2,1.8-2.7,1.8-4.4
				c0-1.6-0.7-3.2-1.8-4.4c-1.2-1.2-2.7-1.8-4.4-1.8s-3.2,0.7-4.4,1.8c-1.2,1.2-1.8,2.7-1.8,4.4c0,1.6,0.7,3.2,1.8,4.4
				C156.9,92.6,158.5,93.3,160.1,93.3L160.1,93.3z M186,55.6c1.6,0,3.2-0.7,4.4-1.8c1.2-1.2,1.8-2.7,1.8-4.4c0-1.6-0.7-3.2-1.8-4.4
				c-1.2-1.2-2.7-1.8-4.4-1.8c-1.6,0-3.2,0.7-4.4,1.8c-1.2,1.2-1.8,2.7-1.8,4.4c0,1.6,0.7,3.2,1.8,4.4
				C182.8,54.9,184.4,55.6,186,55.6L186,55.6z M163.7,46.5c1.7,0,3.3-0.7,4.5-1.9c1.2-1.2,1.9-2.8,1.9-4.5c0-1.7-0.7-3.3-1.9-4.5
				c-1.2-1.2-2.8-1.9-4.5-1.9s-3.3,0.7-4.5,1.9c-1.2,1.2-1.9,2.8-1.9,4.5c0,1.7,0.7,3.3,1.9,4.5C160.4,45.8,162.1,46.5,163.7,46.5
				L163.7,46.5z M37.6,64.8c1.5,0,2.9-0.6,4-1.7c1.1-1.1,1.7-2.5,1.7-4c0-1.5-0.6-2.9-1.7-4c-1.1-1.1-2.5-1.7-4-1.7
				c-1.5,0-2.9,0.6-4,1.7c-1.1,1.1-1.7,2.5-1.7,4c0,1.5,0.6,2.9,1.7,4C34.7,64.2,36.1,64.8,37.6,64.8L37.6,64.8z M341.8,32.6
				c1.6,0,3.2-0.6,4.4-1.8c1.2-1.2,1.8-2.7,1.8-4.4c0-1.6-0.6-3.2-1.8-4.4c-1.2-1.2-2.7-1.8-4.4-1.8c-1.6,0-3.2,0.6-4.4,1.8
				c-1.2,1.2-1.8,2.7-1.8,4.4c0,1.6,0.6,3.2,1.8,4.4C338.6,31.9,340.2,32.6,341.8,32.6L341.8,32.6z M212.3,105.9
				c1.7,0,3.4-0.7,4.6-1.9c1.2-1.2,1.9-2.9,1.9-4.6c0-1.7-0.7-3.4-1.9-4.6c-1.2-1.2-2.9-1.9-4.6-1.9c-1.7,0-3.4,0.7-4.6,1.9
				c-1.2,1.2-1.9,2.9-1.9,4.6c0,1.7,0.7,3.4,1.9,4.6C208.9,105.2,210.5,105.9,212.3,105.9L212.3,105.9z M339,78.5
				c1.7,0,3.4-0.7,4.6-1.9c1.2-1.2,1.9-2.9,1.9-4.6s-0.7-3.4-1.9-4.6c-1.2-1.2-2.9-1.9-4.6-1.9s-3.4,0.7-4.6,1.9
				c-1.2,1.2-1.9,2.9-1.9,4.6s0.7,3.4,1.9,4.6C335.6,77.8,337.3,78.5,339,78.5L339,78.5z M71.1,34.7c1.8,0,3.5-0.7,4.7-1.9
				c1.2-1.2,1.9-2.9,1.9-4.7c0-1.8-0.7-3.5-1.9-4.7c-1.2-1.2-2.9-1.9-4.7-1.9s-3.5,0.7-4.7,1.9c-1.2,1.2-1.9,2.9-1.9,4.7
				c0,1.8,0.7,3.5,1.9,4.7C67.7,34,69.4,34.7,71.1,34.7L71.1,34.7z M430.4,63.1c1.7,0,3.4-0.7,4.6-1.9c1.2-1.2,1.9-2.9,1.9-4.6
				c0-1.7-0.7-3.4-1.9-4.6c-1.2-1.2-2.9-1.9-4.6-1.9s-3.4,0.7-4.6,1.9c-1.2,1.2-1.9,2.9-1.9,4.6c0,1.7,0.7,3.4,1.9,4.6
				C427,62.4,428.7,63.1,430.4,63.1L430.4,63.1z M265,69.7c1.7,0,3.3-0.7,4.5-1.9c1.2-1.2,1.9-2.8,1.9-4.5c0-1.7-0.7-3.3-1.9-4.5
				c-1.2-1.2-2.8-1.9-4.5-1.9c-1.7,0-3.3,0.7-4.5,1.9c-1.2,1.2-1.9,2.8-1.9,4.5c0,1.7,0.7,3.3,1.9,4.5C261.7,69,263.3,69.7,265,69.7
				L265,69.7z M54.3,78.2c1.5,0,3-0.6,4.1-1.7c1.1-1.1,1.7-2.6,1.7-4.1c0-1.5-0.6-3-1.7-4.1c-1.1-1.1-2.6-1.7-4.1-1.7
				c-1.5,0-3,0.6-4.1,1.7c-1.1,1.1-1.7,2.6-1.7,4.1c0,1.5,0.6,3,1.7,4.1C51.3,77.6,52.8,78.2,54.3,78.2L54.3,78.2z M257.1,112.6
				c1.5,0,2.8-0.6,3.9-1.6s1.6-2.4,1.6-3.9c0-1.5-0.6-2.8-1.6-3.9c-1-1-2.4-1.6-3.9-1.6c-1.5,0-2.8,0.6-3.9,1.6
				c-1,1-1.6,2.4-1.6,3.9c0,1.5,0.6,2.8,1.6,3.9C254.3,112,255.7,112.6,257.1,112.6L257.1,112.6z M266.5,93c1.5,0,2.9-0.6,3.9-1.6
				c1-1,1.6-2.5,1.6-3.9s-0.6-2.9-1.6-3.9c-1-1-2.5-1.6-3.9-1.6c-1.5,0-2.9,0.6-3.9,1.6c-1,1-1.6,2.5-1.6,3.9s0.6,2.9,1.6,3.9
				C263.6,92.4,265,93,266.5,93L266.5,93z M387.1,42.4c1.6,0,3.1-0.6,4.3-1.8c1.1-1.1,1.8-2.7,1.8-4.3c0-1.6-0.6-3.1-1.8-4.3
				c-1.1-1.1-2.7-1.8-4.3-1.8c-1.6,0-3.1,0.6-4.3,1.8c-1.1,1.1-1.8,2.7-1.8,4.3c0,1.6,0.6,3.1,1.8,4.3
				C384,41.8,385.5,42.4,387.1,42.4L387.1,42.4z M296.7,56.8c1.5,0,2.9-0.6,3.9-1.6c1-1,1.6-2.4,1.6-3.9s-0.6-2.9-1.6-3.9
				c-1-1-2.4-1.6-3.9-1.6c-1.5,0-2.9,0.6-3.9,1.6c-1,1-1.6,2.4-1.6,3.9s0.6,2.9,1.6,3.9C293.8,56.2,295.2,56.8,296.7,56.8
				L296.7,56.8z M297.5,81.9c1.4,0,2.8-0.6,3.8-1.6c1-1,1.6-2.4,1.6-3.8c0-1.4-0.6-2.8-1.6-3.8c-1-1-2.4-1.6-3.8-1.6
				c-1.4,0-2.8,0.6-3.8,1.6c-1,1-1.6,2.4-1.6,3.8c0,1.4,0.6,2.8,1.6,3.8C294.6,81.3,296,81.9,297.5,81.9L297.5,81.9z M138.1,65.5
				c1.5,0,2.9-0.6,3.9-1.6c1-1,1.6-2.5,1.6-3.9c0-1.5-0.6-2.9-1.6-3.9c-1-1-2.5-1.6-3.9-1.6s-2.9,0.6-3.9,1.6c-1,1-1.6,2.5-1.6,3.9
				c0,1.5,0.6,2.9,1.6,3.9C135.2,64.9,136.7,65.5,138.1,65.5L138.1,65.5z M206.4,58.7c1.4,0,2.8-0.6,3.8-1.6c1-1,1.6-2.4,1.6-3.8
				c0-1.4-0.6-2.8-1.6-3.8c-1-1-2.4-1.6-3.8-1.6c-1.4,0-2.8,0.6-3.8,1.6c-1,1-1.6,2.4-1.6,3.8c0,1.4,0.6,2.8,1.6,3.8
				C203.6,58.1,205,58.7,206.4,58.7L206.4,58.7z M422.8,100.1c1.5,0,2.9-0.6,4-1.6c1.1-1.1,1.6-2.5,1.6-4s-0.6-2.9-1.6-4
				c-1.1-1.1-2.5-1.6-4-1.6c-1.5,0-2.9,0.6-4,1.6c-1.1,1.1-1.6,2.5-1.6,4s0.6,2.9,1.6,4C419.9,99.5,421.3,100.1,422.8,100.1
				L422.8,100.1z M295.3,69.7c1.7,0,3.3-0.7,4.5-1.9c1.2-1.2,1.9-2.8,1.9-4.5c0-1.7-0.7-3.3-1.9-4.5s-2.8-1.9-4.5-1.9
				c-1.7,0-3.3,0.7-4.5,1.9c-1.2,1.2-1.9,2.8-1.9,4.5c0,1.7,0.7,3.3,1.9,4.5C292,69,293.6,69.7,295.3,69.7L295.3,69.7z M93.8,61.9
				c1.5,0,2.9-0.6,3.9-1.6c1-1,1.6-2.4,1.6-3.9c0-1.5-0.6-2.9-1.6-3.9c-1-1-2.4-1.6-3.9-1.6c-1.5,0-2.9,0.6-3.9,1.6
				c-1,1-1.6,2.4-1.6,3.9c0,1.5,0.6,2.9,1.6,3.9C90.9,61.3,92.4,61.9,93.8,61.9L93.8,61.9z M381.7,63.1c1.7,0,3.2-0.7,4.4-1.8
				c1.2-1.2,1.8-2.8,1.8-4.4c0-1.7-0.7-3.2-1.8-4.4c-1.2-1.2-2.8-1.8-4.4-1.8c-1.7,0-3.2,0.7-4.4,1.8c-1.2,1.2-1.8,2.8-1.8,4.4
				c0,1.7,0.7,3.2,1.8,4.4C378.4,62.4,380,63.1,381.7,63.1L381.7,63.1z M190,78.3c1.7,0,3.3-0.7,4.5-1.8c1.2-1.2,1.8-2.8,1.8-4.5
				c0-1.7-0.7-3.3-1.8-4.5c-1.2-1.2-2.8-1.8-4.5-1.8s-3.3,0.7-4.5,1.8c-1.2,1.2-1.8,2.8-1.8,4.5c0,1.7,0.7,3.3,1.8,4.5
				C186.7,77.7,188.3,78.3,190,78.3L190,78.3z M253.9,49.3c1.7,0,3.4-0.7,4.6-1.9c1.2-1.2,1.9-2.9,1.9-4.6c0-1.7-0.7-3.4-1.9-4.6
				c-1.2-1.2-2.9-1.9-4.6-1.9c-1.7,0-3.4,0.7-4.6,1.9c-1.2,1.2-1.9,2.9-1.9,4.6c0,1.7,0.7,3.4,1.9,4.6
				C250.5,48.6,252.1,49.3,253.9,49.3L253.9,49.3z M385.4,101.3c1.8,0,3.5-0.7,4.7-2c1.3-1.3,2-3,2-4.7s-0.7-3.5-2-4.7
				c-1.3-1.3-3-2-4.7-2s-3.5,0.7-4.7,2c-1.3,1.3-2,3-2,4.7s0.7,3.5,2,4.7C381.9,100.6,383.6,101.3,385.4,101.3L385.4,101.3z
				 M232.7,79.6c1.6,0,3.1-0.6,4.2-1.7c1.1-1.1,1.7-2.6,1.7-4.2c0-1.6-0.6-3.1-1.7-4.2c-1.1-1.1-2.6-1.7-4.2-1.7
				c-1.6,0-3.1,0.6-4.2,1.7c-1.1,1.1-1.7,2.6-1.7,4.2c0,1.6,0.6,3.1,1.7,4.2C229.6,79,231.1,79.6,232.7,79.6L232.7,79.6z
				 M418.5,41.4c1.4,0,2.8-0.6,3.8-1.6c1-1,1.6-2.4,1.6-3.8s-0.6-2.8-1.6-3.8c-1-1-2.4-1.6-3.8-1.6c-1.4,0-2.8,0.6-3.8,1.6
				c-1,1-1.6,2.4-1.6,3.8s0.6,2.8,1.6,3.8C415.7,40.9,417.1,41.4,418.5,41.4L418.5,41.4z M119.7,56c1.6,0,3.1-0.6,4.2-1.8
				c1.1-1.1,1.8-2.6,1.8-4.2c0-1.6-0.6-3.1-1.8-4.2s-2.6-1.8-4.2-1.8c-1.6,0-3.1,0.6-4.2,1.8c-1.1,1.1-1.8,2.6-1.8,4.2
				c0,1.6,0.6,3.1,1.8,4.2C116.6,55.4,118.2,56,119.7,56L119.7,56z M58.3,13.7c1.4,0,2.8-0.6,3.9-1.6c1-1,1.6-2.4,1.6-3.9
				c0-1.4-0.6-2.8-1.6-3.9c-1-1-2.4-1.6-3.9-1.6c-1.4,0-2.8,0.6-3.9,1.6c-1,1-1.6,2.4-1.6,3.9c0,1.4,0.6,2.8,1.6,3.9
				C55.4,13.2,56.8,13.7,58.3,13.7L58.3,13.7z M405.1,85.6c1.6,0,3.2-0.6,4.3-1.8c1.1-1.1,1.8-2.7,1.8-4.3c0-1.6-0.6-3.2-1.8-4.3
				c-1.1-1.1-2.7-1.8-4.3-1.8c-1.6,0-3.2,0.6-4.3,1.8c-1.1,1.1-1.8,2.7-1.8,4.3c0,1.6,0.6,3.2,1.8,4.3
				C401.9,84.9,403.5,85.6,405.1,85.6L405.1,85.6z M406.5,114.9c1.6,0,3.1-0.6,4.2-1.7c1.1-1.1,1.7-2.6,1.7-4.2
				c0-1.6-0.6-3.1-1.7-4.2c-1.1-1.1-2.6-1.7-4.2-1.7c-1.6,0-3.1,0.6-4.2,1.7c-1.1,1.1-1.7,2.6-1.7,4.2c0,1.6,0.6,3.1,1.7,4.2
				C403.4,114.3,405,114.9,406.5,114.9L406.5,114.9z M297.9,36.1c1.6,0,3.1-0.6,4.3-1.8s1.8-2.7,1.8-4.3s-0.6-3.1-1.8-4.3
				c-1.1-1.1-2.7-1.8-4.3-1.8c-1.6,0-3.1,0.6-4.3,1.8c-1.1,1.1-1.8,2.7-1.8,4.3s0.6,3.1,1.8,4.3C294.7,35.5,296.3,36.1,297.9,36.1
				L297.9,36.1z M253.6,77.2c1.7,0,3.3-0.7,4.4-1.8c1.2-1.2,1.8-2.8,1.8-4.4c0-1.7-0.7-3.3-1.8-4.4c-1.2-1.2-2.8-1.8-4.4-1.8
				c-1.7,0-3.3,0.7-4.4,1.8c-1.2,1.2-1.8,2.8-1.8,4.4c0,1.7,0.7,3.3,1.8,4.4C250.3,76.6,251.9,77.2,253.6,77.2L253.6,77.2z
				 M373.4,81.8c1.6,0,3.1-0.6,4.2-1.7c1.1-1.1,1.7-2.6,1.7-4.2c0-1.6-0.6-3.1-1.7-4.2c-1.1-1.1-2.6-1.7-4.2-1.7
				c-1.6,0-3.1,0.6-4.2,1.7c-1.1,1.1-1.7,2.6-1.7,4.2c0,1.6,0.6,3.1,1.7,4.2C370.3,81.2,371.8,81.8,373.4,81.8L373.4,81.8z
				 M38.2,44.1c1.6,0,3.2-0.7,4.4-1.8c1.2-1.2,1.8-2.7,1.8-4.4c0-1.6-0.7-3.2-1.8-4.4c-1.2-1.2-2.7-1.8-4.4-1.8
				c-1.6,0-3.2,0.7-4.4,1.8C32.6,34.8,32,36.3,32,38c0,1.6,0.7,3.2,1.8,4.4S36.5,44.1,38.2,44.1L38.2,44.1z M242.8,70.6
				c1.7,0,3.4-0.7,4.6-1.9c1.2-1.2,1.9-2.9,1.9-4.6c0-1.7-0.7-3.4-1.9-4.6c-1.2-1.2-2.9-1.9-4.6-1.9c-1.7,0-3.4,0.7-4.6,1.9
				c-1.2,1.2-1.9,2.9-1.9,4.6c0,1.7,0.7,3.4,1.9,4.6C239.4,69.9,241,70.6,242.8,70.6L242.8,70.6z M375.6,39.8c1.5,0,3-0.6,4.1-1.7
				c1.1-1.1,1.7-2.5,1.7-4.1c0-1.5-0.6-3-1.7-4.1c-1.1-1.1-2.5-1.7-4.1-1.7s-3,0.6-4.1,1.7c-1.1,1.1-1.7,2.5-1.7,4.1
				c0,1.5,0.6,3,1.7,4.1C372.6,39.2,374.1,39.8,375.6,39.8L375.6,39.8z M323,118.2c1.7,0,3.4-0.7,4.7-1.9c1.2-1.2,1.9-2.9,1.9-4.7
				c0-1.7-0.7-3.4-1.9-4.7c-1.2-1.2-2.9-1.9-4.7-1.9c-1.7,0-3.4,0.7-4.7,1.9c-1.2,1.2-1.9,2.9-1.9,4.7c0,1.7,0.7,3.4,1.9,4.7
				C319.6,117.5,321.2,118.2,323,118.2L323,118.2z M7,32.2c1.7,0,3.4-0.7,4.6-1.9c1.2-1.2,1.9-2.9,1.9-4.6c0-1.7-0.7-3.4-1.9-4.6
				c-1.2-1.2-2.9-1.9-4.6-1.9c-1.7,0-3.4,0.7-4.6,1.9c-1.2,1.2-1.9,2.9-1.9,4.6c0,1.7,0.7,3.4,1.9,4.6C3.7,31.5,5.3,32.2,7,32.2
				L7,32.2z M415,78.6c1.5,0,3-0.6,4.1-1.7c1.1-1.1,1.7-2.5,1.7-4.1c0-1.5-0.6-3-1.7-4.1c-1.1-1.1-2.5-1.7-4.1-1.7
				c-1.5,0-3,0.6-4.1,1.7c-1.1,1.1-1.7,2.5-1.7,4.1c0,1.5,0.6,3,1.7,4.1C412,78,413.4,78.6,415,78.6L415,78.6z M278.6,109.4
				c1.5,0,2.9-0.6,3.9-1.6c1-1,1.6-2.5,1.6-3.9c0-1.5-0.6-2.9-1.6-3.9c-1-1-2.5-1.6-3.9-1.6s-2.9,0.6-3.9,1.6c-1,1-1.6,2.5-1.6,3.9
				c0,1.5,0.6,2.9,1.6,3.9C275.7,108.8,277.1,109.4,278.6,109.4L278.6,109.4z M190.7,17.3c1.4,0,2.8-0.6,3.8-1.6
				c1-1,1.6-2.4,1.6-3.8c0-1.4-0.6-2.8-1.6-3.8c-1-1-2.4-1.6-3.8-1.6c-1.4,0-2.8,0.6-3.8,1.6c-1,1-1.6,2.4-1.6,3.8
				c0,1.4,0.6,2.8,1.6,3.8C188,16.8,189.3,17.3,190.7,17.3L190.7,17.3z M331.6,96.1c1.6,0,3.2-0.6,4.3-1.8c1.1-1.1,1.8-2.7,1.8-4.3
				c0-1.6-0.6-3.2-1.8-4.3c-1.1-1.1-2.7-1.8-4.3-1.8c-1.6,0-3.2,0.6-4.3,1.8s-1.8,2.7-1.8,4.3c0,1.6,0.6,3.2,1.8,4.3
				S329.9,96.1,331.6,96.1L331.6,96.1z M118.5,88.8c1.6,0,3.2-0.6,4.3-1.8c1.1-1.1,1.8-2.7,1.8-4.3c0-1.6-0.6-3.2-1.8-4.3
				c-1.1-1.1-2.7-1.8-4.3-1.8s-3.2,0.6-4.3,1.8c-1.1,1.1-1.8,2.7-1.8,4.3c0,1.6,0.6,3.2,1.8,4.3C115.3,88.2,116.9,88.8,118.5,88.8
				L118.5,88.8z M420,55.5c1.6,0,3.2-0.6,4.3-1.8c1.1-1.1,1.8-2.7,1.8-4.3c0-1.6-0.6-3.2-1.8-4.3c-1.1-1.1-2.7-1.8-4.3-1.8
				c-1.6,0-3.2,0.6-4.3,1.8c-1.1,1.1-1.8,2.7-1.8,4.3c0,1.6,0.6,3.2,1.8,4.3C416.8,54.9,418.4,55.5,420,55.5L420,55.5z M41.5,87.5
				c1.8,0,3.5-0.7,4.7-2c1.3-1.3,2-3,2-4.7c0-1.8-0.7-3.5-2-4.7c-1.3-1.3-3-2-4.7-2c-1.8,0-3.5,0.7-4.7,2c-1.3,1.3-2,3-2,4.7
				c0,1.8,0.7,3.5,2,4.7C38.1,86.8,39.8,87.5,41.5,87.5L41.5,87.5z M274.4,61.2c1.6,0,3.2-0.6,4.3-1.8c1.2-1.2,1.8-2.7,1.8-4.3
				s-0.6-3.2-1.8-4.3c-1.2-1.2-2.7-1.8-4.3-1.8s-3.2,0.6-4.3,1.8c-1.2,1.2-1.8,2.7-1.8,4.3s0.6,3.2,1.8,4.3
				C271.2,60.5,272.8,61.2,274.4,61.2L274.4,61.2z"/>
		</g>
	</g>
</g>
<g id="Layer_1">
	<text transform="matrix(1 0 0 1 100.5448 74.7865)" class="st1 st2">DEMSI</text>
	<text transform="matrix(1 0 0 1 26.5448 101.12)" class="st1 st3">Discrete Element Model for Sea Ice</text>
</g>
</svg>
